<svg id="Capa_1" data-name="Capa 1" xmlns="http://www.w3.org/2000/svg" viewBox="0 0 110 30"><defs><style>.cls-1{fill:#d66f1f;}.cls-2{fill:#727276;}.cls-3{fill:#1f140f;}</style></defs><title>adi-guatemala</title><polygon class="cls-1" points="11.02 8.29 9.02 17.12 13.1 17.12 11.02 8.29"/><polygon class="cls-1" points="15.3 26.49 14.18 21.7 7.98 21.7 6.9 26.49 15.3 26.49"/><path class="cls-2" d="M23.77,3.51H13.94l5.6,23h4.08s6.81.25,6.81-7.76V9.81S29.32,3.51,23.77,3.51Zm2.37,15.72c0,2.88-4,2.47-4,2.47V8.09c3.76,0,4,2.52,4,2.52Z"/><rect class="cls-1" x="30.43" y="3.51" width="5.7" height="22.99"/><path class="cls-3" d="M42.52,3.51h-6.4v23H46.66a6.11,6.11,0,0,0,5.44-6.25V14.55H44.84v3.68h3.08v2.06a2.85,2.85,0,0,1-2.73,2.47,2.56,2.56,0,0,1-2.72-2.87V10a2.71,2.71,0,0,1,2.72-2.72c2.68,0,2.63,3.83,2.63,3.83H52.1s-.2-7.61-6-7.61Z"/><path class="cls-3" d="M51.2,5.12V4.26h.38a.42.42,0,0,1,.18,0,.14.14,0,0,1,.09.08.2.2,0,0,1,0,.13.2.2,0,0,1-.06.15.3.3,0,0,1-.18.08l.06,0a.52.52,0,0,1,.1.11l.15.24h-.15l-.11-.18-.08-.12a.34.34,0,0,0-.06-.06l-.05,0h-.19v.38Zm.12-.48h.24l.12,0a.12.12,0,0,0,.07,0,.19.19,0,0,0,0-.07.12.12,0,0,0,0-.1.2.2,0,0,0-.14,0h-.27Z"/><path class="cls-3" d="M51.58,5.57a.88.88,0,1,1,.88-.88A.87.87,0,0,1,51.58,5.57Zm0-1.61a.73.73,0,1,0,.73.73A.73.73,0,0,0,51.58,4Z"/><rect class="cls-3" x="56.51" y="0.26" width="0.15" height="29.49"/><path class="cls-3" d="M63.69,9.7l-.23-.89H62.31l-.24.89h-.38l1-3.55h.5l.93,3.55ZM62.9,6.47h0l-.52,2.06h1Z"/><path class="cls-3" d="M66.2,8.79a1.08,1.08,0,0,1-.08.42,1.1,1.1,0,0,1-.2.31.89.89,0,0,1-.31.19.94.94,0,0,1-.37.07,1.32,1.32,0,0,1-.53-.11,1.1,1.1,0,0,1-.39-.31l.23-.24a.76.76,0,0,0,.31.25.84.84,0,0,0,.37.09.6.6,0,0,0,.43-.17.61.61,0,0,0,.17-.48.59.59,0,0,0,0-.27.56.56,0,0,0-.14-.2.83.83,0,0,0-.21-.16A1.38,1.38,0,0,0,65.19,8a1.59,1.59,0,0,1-.29-.15,1.21,1.21,0,0,1-.24-.21.73.73,0,0,1-.17-.27A1,1,0,0,1,64.43,7a.93.93,0,0,1,.08-.42.77.77,0,0,1,.21-.31A.87.87,0,0,1,65,6.13a1,1,0,0,1,.35-.06,1.3,1.3,0,0,1,.46.08.8.8,0,0,1,.34.26L66,6.65a.67.67,0,0,0-.25-.2.68.68,0,0,0-.32-.07.93.93,0,0,0-.22,0,.55.55,0,0,0-.19.12.6.6,0,0,0-.14.2.94.94,0,0,0,0,.3.53.53,0,0,0,0,.26.5.5,0,0,0,.13.19.7.7,0,0,0,.19.15,1.19,1.19,0,0,0,.22.12l.3.16a1.32,1.32,0,0,1,.26.22.92.92,0,0,1,.19.28A1,1,0,0,1,66.2,8.79Z"/><path class="cls-3" d="M69.21,7.92a3,3,0,0,1-.08.76,2.27,2.27,0,0,1-.24.59,1.28,1.28,0,0,1-.39.38,1,1,0,0,1-.52.13,1,1,0,0,1-.52-.13,1.21,1.21,0,0,1-.4-.38,1.74,1.74,0,0,1-.24-.59,3,3,0,0,1-.09-.76,3.52,3.52,0,0,1,.08-.75,2.14,2.14,0,0,1,.24-.59,1.28,1.28,0,0,1,.39-.38A1.08,1.08,0,0,1,68,6.07a1,1,0,0,1,.52.13,1.28,1.28,0,0,1,.39.38,2.14,2.14,0,0,1,.24.59A3,3,0,0,1,69.21,7.92Zm-.38,0a2.91,2.91,0,0,0-.06-.6,1.66,1.66,0,0,0-.16-.49.94.94,0,0,0-.27-.32A.56.56,0,0,0,68,6.39a.62.62,0,0,0-.38.12.94.94,0,0,0-.27.32,2,2,0,0,0-.16.49,3.63,3.63,0,0,0,0,1.2,2,2,0,0,0,.16.49.89.89,0,0,0,.27.33.62.62,0,0,0,.38.12.61.61,0,0,0,.37-.12A.87.87,0,0,0,68.61,9a1.41,1.41,0,0,0,.16-.49A2.91,2.91,0,0,0,68.83,7.92Z"/><path class="cls-3" d="M71.58,9.66a1.14,1.14,0,0,1-.52.12,1.12,1.12,0,0,1-.55-.14,1.48,1.48,0,0,1-.4-.39,2,2,0,0,1-.25-.59,2.89,2.89,0,0,1-.09-.74,2.94,2.94,0,0,1,.09-.74,1.92,1.92,0,0,1,.25-.58,1.26,1.26,0,0,1,.41-.39,1,1,0,0,1,.54-.14,1.21,1.21,0,0,1,.5.1.92.92,0,0,1,.38.33l-.24.23a.86.86,0,0,0-.28-.26.81.81,0,0,0-.34-.08.71.71,0,0,0-.41.12,1,1,0,0,0-.29.33,2,2,0,0,0-.17.49,3.7,3.7,0,0,0,0,.59,2.84,2.84,0,0,0,.06.6,1.77,1.77,0,0,0,.17.49.94.94,0,0,0,.29.33.68.68,0,0,0,.4.12.6.6,0,0,0,.37-.11.81.81,0,0,0,.27-.28L72,9.3A1.16,1.16,0,0,1,71.58,9.66Z"/><path class="cls-3" d="M72.5,9.7V6.15h.37V9.7Z"/><path class="cls-3" d="M75.36,9.7l-.23-.89H74l-.23.89h-.38l1-3.55h.51l.93,3.55Zm-.79-3.23h0L74,8.53h1Z"/><path class="cls-3" d="M77.84,9.66a1.07,1.07,0,0,1-.51.12,1.1,1.1,0,0,1-.55-.14,1.35,1.35,0,0,1-.4-.39,1.75,1.75,0,0,1-.25-.59A2.89,2.89,0,0,1,76,7.92a2.94,2.94,0,0,1,.09-.74,1.7,1.7,0,0,1,.25-.58,1.17,1.17,0,0,1,.41-.39,1,1,0,0,1,.54-.14,1.16,1.16,0,0,1,.49.1.89.89,0,0,1,.39.33L78,6.73a1,1,0,0,0-.28-.26.85.85,0,0,0-.35-.08.68.68,0,0,0-.4.12.94.94,0,0,0-.29.33,1.66,1.66,0,0,0-.17.49,2.82,2.82,0,0,0,0,.59,2.86,2.86,0,0,0,0,.6,1.78,1.78,0,0,0,.18.49.91.91,0,0,0,.28.33.71.71,0,0,0,.41.12.59.59,0,0,0,.36-.11A.93.93,0,0,0,78,9.07l.23.23A1.19,1.19,0,0,1,77.84,9.66Z"/><path class="cls-3" d="M78.77,9.7V6.15h.37V9.7Z"/><path class="cls-3" d="M82.34,7.92a3.55,3.55,0,0,1-.08.76,2,2,0,0,1-.25.59,1.15,1.15,0,0,1-.38.38,1,1,0,0,1-.52.13,1,1,0,0,1-.53-.13,1.28,1.28,0,0,1-.39-.38,2,2,0,0,1-.25-.59,3.6,3.6,0,0,1,0-1.51,2.14,2.14,0,0,1,.24-.59,1.28,1.28,0,0,1,.39-.38,1.05,1.05,0,0,1,.54-.13,1,1,0,0,1,.52.13,1.15,1.15,0,0,1,.38.38,1.87,1.87,0,0,1,.25.59A3.52,3.52,0,0,1,82.34,7.92Zm-.39,0a2.92,2.92,0,0,0,0-.6,1.66,1.66,0,0,0-.16-.49.94.94,0,0,0-.27-.32.58.58,0,0,0-.36-.12.6.6,0,0,0-.38.12.94.94,0,0,0-.27.32,1.66,1.66,0,0,0-.16.49,2.92,2.92,0,0,0,0,.6,2.92,2.92,0,0,0,0,.6,1.66,1.66,0,0,0,.16.49.89.89,0,0,0,.27.33.6.6,0,0,0,.38.12.61.61,0,0,0,.37-.12A1,1,0,0,0,81.74,9a1.66,1.66,0,0,0,.16-.49A2.92,2.92,0,0,0,82,7.92Zm-.86-2H80.8l.48-.72h.38Z"/><path class="cls-3" d="M84.74,9.7,83.43,6.75h0V9.7h-.35V6.15h.46l1.3,2.95h0V6.15h.34V9.7Z"/><path class="cls-3" d="M89.23,7.93a3,3,0,0,1-.09.77,1.67,1.67,0,0,1-.28.55,1.06,1.06,0,0,1-.43.33,1.28,1.28,0,0,1-.56.12h-.81V6.15h.82a1.31,1.31,0,0,1,.56.12,1.13,1.13,0,0,1,.43.33,2,2,0,0,1,.27.56A3,3,0,0,1,89.23,7.93Zm-.36,0a2.59,2.59,0,0,0-.08-.66,1.5,1.5,0,0,0-.21-.46.91.91,0,0,0-.32-.27.86.86,0,0,0-.39-.09h-.44v3h.44a.86.86,0,0,0,.39-.09A.84.84,0,0,0,88.58,9a1.34,1.34,0,0,0,.21-.45A2.51,2.51,0,0,0,88.87,7.93Z"/><path class="cls-3" d="M90,9.7V6.15h1.51v.31H90.32V7.7h1.07V8H90.32V9.38h1.2V9.7Z"/><path class="cls-3" d="M64.6,13a2.68,2.68,0,0,1-.09.72,1.64,1.64,0,0,1-.28.56,1.26,1.26,0,0,1-.49.35,1.68,1.68,0,0,1-.7.13H62V11.17h1a1.86,1.86,0,0,1,.7.13,1.18,1.18,0,0,1,.49.36,1.55,1.55,0,0,1,.28.56A2.78,2.78,0,0,1,64.6,13Zm-.85,0a1.47,1.47,0,0,0-.19-.81.6.6,0,0,0-.51-.27h-.2V14h.2a.6.6,0,0,0,.51-.27A1.46,1.46,0,0,0,63.75,13Z"/><path class="cls-3" d="M65.14,14.72V11.17H67v.71H66v.7h.92v.66H66V14H67v.72Z"/><path class="cls-3" d="M69.09,12a.69.69,0,0,0-.22-.16.63.63,0,0,0-.27-.06.38.38,0,0,0-.25.09.31.31,0,0,0-.12.28.29.29,0,0,0,.12.25,1.86,1.86,0,0,0,.34.21l.27.14a1.28,1.28,0,0,1,.26.2,1,1,0,0,1,.2.29,1,1,0,0,1,.08.4,1.27,1.27,0,0,1-.1.5,1,1,0,0,1-.26.37,1.17,1.17,0,0,1-.38.21,1.31,1.31,0,0,1-.44.07,1.59,1.59,0,0,1-.62-.12,1.45,1.45,0,0,1-.44-.28l.43-.6A1.1,1.1,0,0,0,68,14a1,1,0,0,0,.33.07.35.35,0,0,0,.26-.1.33.33,0,0,0,.1-.26.35.35,0,0,0-.12-.28,2,2,0,0,0-.38-.22,2.64,2.64,0,0,1-.29-.15.93.93,0,0,1-.23-.21.88.88,0,0,1-.17-.28,1.4,1.4,0,0,1,0-.38,1.13,1.13,0,0,1,.1-.51,1,1,0,0,1,.27-.34,1,1,0,0,1,.37-.21,1.45,1.45,0,0,1,.41-.06,1.55,1.55,0,0,1,.55.09,1.2,1.2,0,0,1,.41.26Z"/><path class="cls-3" d="M71.67,14.72l-.15-.65h-.85l-.15.65h-.85l.91-3.55h1.07l.91,3.55ZM71.11,12h0l-.32,1.5h.64Z"/><path class="cls-3" d="M74.48,14.72,74,13.31h-.25v1.41h-.81V11.17h1.2a1.24,1.24,0,0,1,.85.27,1,1,0,0,1,.3.8,1.23,1.23,0,0,1-.05.35,1,1,0,0,1-.12.27.77.77,0,0,1-.18.18.81.81,0,0,1-.18.1l.64,1.58Zm0-2.43a.62.62,0,0,0,0-.22.4.4,0,0,0-.11-.14.37.37,0,0,0-.14-.07h-.42v.89H74a.46.46,0,0,0,.32-.11A.4.4,0,0,0,74.43,12.29Z"/><path class="cls-3" d="M77.37,14.72l-.51-1.41h-.24v1.41H75.8V11.17H77a1.24,1.24,0,0,1,.85.27,1,1,0,0,1,.3.8,1.23,1.23,0,0,1-.05.35,1,1,0,0,1-.12.27,1,1,0,0,1-.17.18,1.18,1.18,0,0,1-.19.1l.64,1.58Zm-.05-2.43a.62.62,0,0,0,0-.22.31.31,0,0,0-.11-.14.37.37,0,0,0-.14-.07h-.41v.89h.25a.44.44,0,0,0,.31-.11A.4.4,0,0,0,77.32,12.29Z"/><path class="cls-3" d="M81.42,12.94a2.71,2.71,0,0,1-.1.77,1.7,1.7,0,0,1-.28.59,1.4,1.4,0,0,1-.46.38,1.45,1.45,0,0,1-1.2,0,1.4,1.4,0,0,1-.46-.38,1.9,1.9,0,0,1-.28-.59,2.71,2.71,0,0,1-.1-.77,2.66,2.66,0,0,1,.1-.77,1.65,1.65,0,0,1,.28-.58,1.27,1.27,0,0,1,.45-.38,1.33,1.33,0,0,1,.61-.13,1.32,1.32,0,0,1,.6.13,1.4,1.4,0,0,1,.46.38,1.65,1.65,0,0,1,.28.58A2.66,2.66,0,0,1,81.42,12.94Zm-.87,0a2.81,2.81,0,0,0,0-.43,1.36,1.36,0,0,0-.11-.34.62.62,0,0,0-.18-.23.43.43,0,0,0-.5,0,.62.62,0,0,0-.18.23,1,1,0,0,0-.11.34,2.81,2.81,0,0,0,0,.43,3,3,0,0,0,0,.43,1,1,0,0,0,.11.34.62.62,0,0,0,.18.23.39.39,0,0,0,.5,0,.62.62,0,0,0,.18-.23,1.36,1.36,0,0,0,.11-.34A3,3,0,0,0,80.55,12.94Z"/><path class="cls-3" d="M82,14.72V11.17h.86V14h1v.74Z"/><path class="cls-3" d="M84.23,14.72V11.17h.85V14h1v.74Z"/><path class="cls-3" d="M88.16,14.72,88,14.07h-.84l-.15.65h-.85l.91-3.55h1.07l.9,3.55ZM87.59,12h0l-.31,1.5h.64Z"/><path class="cls-3" d="M92,13a2.68,2.68,0,0,1-.09.72,1.65,1.65,0,0,1-.29.56,1.22,1.22,0,0,1-.48.35,1.68,1.68,0,0,1-.7.13H89.39V11.17h1.06a1.86,1.86,0,0,1,.7.13,1.15,1.15,0,0,1,.48.36,1.56,1.56,0,0,1,.29.56A2.78,2.78,0,0,1,92,13Zm-.85,0a1.38,1.38,0,0,0-.2-.81.58.58,0,0,0-.5-.27h-.21V14h.21a.58.58,0,0,0,.5-.27A1.38,1.38,0,0,0,91.16,13Z"/><path class="cls-3" d="M95.28,12.94a3.12,3.12,0,0,1-.1.77,1.91,1.91,0,0,1-.29.59,1.27,1.27,0,0,1-.45.38,1.33,1.33,0,0,1-.61.13,1.32,1.32,0,0,1-.6-.13,1.27,1.27,0,0,1-.45-.38,1.91,1.91,0,0,1-.29-.59,3.12,3.12,0,0,1-.1-.77,2.66,2.66,0,0,1,.1-.77,1.84,1.84,0,0,1,.28-.58,1.4,1.4,0,0,1,.46-.38,1.32,1.32,0,0,1,.6-.13,1.33,1.33,0,0,1,.61.13,1.27,1.27,0,0,1,.45.38,1.85,1.85,0,0,1,.29.58A3.06,3.06,0,0,1,95.28,12.94Zm-.87,0a1.91,1.91,0,0,0,0-.43,1,1,0,0,0-.11-.34.62.62,0,0,0-.18-.23.36.36,0,0,0-.25-.08.39.39,0,0,0-.25.08.62.62,0,0,0-.18.23,1,1,0,0,0-.1.34,1.91,1.91,0,0,0,0,.43,2,2,0,0,0,0,.43,1,1,0,0,0,.1.34.62.62,0,0,0,.18.23.4.4,0,0,0,.25.09.37.37,0,0,0,.25-.09.62.62,0,0,0,.18-.23,1,1,0,0,0,.11-.34A2,2,0,0,0,94.41,12.94Z"/><path class="cls-3" d="M97.38,14.72l-.5-1.41h-.25v1.41h-.82V11.17H97a1.21,1.21,0,0,1,.84.27,1,1,0,0,1,.3.8,1.25,1.25,0,0,1,0,.35.89.89,0,0,1-.3.45.81.81,0,0,1-.18.1l.64,1.58Zm0-2.43a.46.46,0,0,0,0-.22.3.3,0,0,0-.1-.14.37.37,0,0,0-.14-.07h-.42v.89h.25a.46.46,0,0,0,.32-.11A.4.4,0,0,0,97.33,12.29Z"/><path class="cls-3" d="M98.71,14.72V11.17h1.81v.71h-1v.7h.92v.66h-.92V14h1.06v.72Z"/><path class="cls-3" d="M102.66,12a.69.69,0,0,0-.22-.16.66.66,0,0,0-.27-.06.43.43,0,0,0-.26.09.33.33,0,0,0-.11.28.29.29,0,0,0,.12.25,1.56,1.56,0,0,0,.34.21l.27.14a1.64,1.64,0,0,1,.26.2,1,1,0,0,1,.19.29.84.84,0,0,1,.08.4,1.28,1.28,0,0,1-.09.5,1.12,1.12,0,0,1-.26.37,1.28,1.28,0,0,1-.38.21,1.31,1.31,0,0,1-.44.07,1.56,1.56,0,0,1-.62-.12,1.64,1.64,0,0,1-.45-.28l.44-.6a1,1,0,0,0,.28.2.92.92,0,0,0,.32.07.34.34,0,0,0,.26-.1.36.36,0,0,0,0-.54,1.89,1.89,0,0,0-.37-.22,2.64,2.64,0,0,1-.29-.15,1.21,1.21,0,0,1-.24-.21.85.85,0,0,1-.16-.28,1.08,1.08,0,0,1-.06-.38,1.13,1.13,0,0,1,.11-.51.82.82,0,0,1,.27-.34,1,1,0,0,1,.37-.21,1.4,1.4,0,0,1,.41-.06,1.59,1.59,0,0,1,.55.09,1.31,1.31,0,0,1,.41.26Z"/><path class="cls-3" d="M62,19.74V16.2h.85v3.54Z"/><path class="cls-3" d="M65.16,19.74l-.88-2.16h0l0,2.16h-.76V16.2h.94l.86,2.18h0l0-2.18h.73v3.54Z"/><path class="cls-3" d="M69.34,19.74l0-2.43h0l-.63,2.43h-.6l-.61-2.43h0l0,2.43h-.77V16.2h1.07l.61,2.28h0L69,16.2h1.13v3.54Z"/><path class="cls-3" d="M73.6,18a3.06,3.06,0,0,1-.1.77,1.91,1.91,0,0,1-.29.59,1.36,1.36,0,0,1-.45.38,1.38,1.38,0,0,1-1.21,0,1.27,1.27,0,0,1-.45-.38,1.71,1.71,0,0,1-.29-.59,2.66,2.66,0,0,1-.1-.77,2.54,2.54,0,0,1,.1-.76,1.7,1.7,0,0,1,.28-.59,1.4,1.4,0,0,1,.46-.38,1.43,1.43,0,0,1,.6-.13,1.48,1.48,0,0,1,.61.13,1.36,1.36,0,0,1,.45.38,1.91,1.91,0,0,1,.29.59A2.91,2.91,0,0,1,73.6,18Zm-.87,0a2.86,2.86,0,0,0,0-.43,1.13,1.13,0,0,0-.11-.34A.71.71,0,0,0,72.4,17a.41.41,0,0,0-.25-.08.44.44,0,0,0-.25.08.71.71,0,0,0-.18.23,1.13,1.13,0,0,0-.1.34,2.33,2.33,0,0,0,0,.86,1.2,1.2,0,0,0,.1.35.84.84,0,0,0,.18.23.44.44,0,0,0,.25.08A.41.41,0,0,0,72.4,19a.84.84,0,0,0,.18-.23,1.2,1.2,0,0,0,.11-.35A2.86,2.86,0,0,0,72.73,18Z"/><path class="cls-3" d="M76.49,18.73a1.14,1.14,0,0,1-.09.48,1,1,0,0,1-.26.31,1.19,1.19,0,0,1-.36.17,1.83,1.83,0,0,1-.4,0H74.13V16.2h1.13l.37,0a1.4,1.4,0,0,1,.36.13.81.81,0,0,1,.27.28.93.93,0,0,1,.11.47.82.82,0,0,1-.14.5.71.71,0,0,1-.33.27h0a1,1,0,0,1,.21.09.77.77,0,0,1,.19.17.68.68,0,0,1,.14.25A.88.88,0,0,1,76.49,18.73Zm-.87-1.49a.35.35,0,0,0-.12-.3.55.55,0,0,0-.29-.08h-.29v.77h.3a.44.44,0,0,0,.27-.09A.33.33,0,0,0,75.62,17.24Zm.07,1.42a.65.65,0,0,0,0-.21.35.35,0,0,0-.11-.13.36.36,0,0,0-.15-.08.45.45,0,0,0-.16,0h-.31v.87h.32a.45.45,0,0,0,.32-.11A.39.39,0,0,0,75.69,18.66Z"/><path class="cls-3" d="M77,19.74V16.2h.86v3.54Z"/><path class="cls-3" d="M78.58,19.74V16.2h.86V19h1v.74Z"/><path class="cls-3" d="M80.85,19.74V16.2h.85v3.54Z"/><path class="cls-3" d="M84.06,19.74l-.15-.64h-.85l-.15.64h-.85L83,16.2H84L85,19.74ZM83.5,17h0l-.32,1.5h.64Z"/><path class="cls-3" d="M86.87,19.74l-.51-1.41h-.25v1.41H85.3V16.2h1.2a1.31,1.31,0,0,1,.85.26,1,1,0,0,1,.3.8,1.23,1.23,0,0,1-.05.35.85.85,0,0,1-.12.27,1,1,0,0,1-.18.18.54.54,0,0,1-.18.1l.64,1.58Zm-.06-2.43a.46.46,0,0,0,0-.22.36.36,0,0,0-.1-.14.35.35,0,0,0-.14-.06.39.39,0,0,0-.15,0h-.27v.89h.25a.51.51,0,0,0,.32-.1A.43.43,0,0,0,86.81,17.31Z"/><path class="cls-3" d="M88.19,19.74V16.2H89v3.54Z"/><path class="cls-3" d="M92.47,18a2.65,2.65,0,0,1-.11.77,1.7,1.7,0,0,1-.28.59,1.4,1.4,0,0,1-.46.38,1.27,1.27,0,0,1-.6.14,1.33,1.33,0,0,1-.6-.14,1.27,1.27,0,0,1-.45-.38,1.71,1.71,0,0,1-.29-.59,2.66,2.66,0,0,1-.1-.77,2.54,2.54,0,0,1,.1-.76,1.7,1.7,0,0,1,.28-.59,1.36,1.36,0,0,1,.45-.38A1.51,1.51,0,0,1,91,16.1a1.28,1.28,0,0,1,1.06.51,1.7,1.7,0,0,1,.28.59A2.53,2.53,0,0,1,92.47,18Zm-.87,0a2.86,2.86,0,0,0,0-.43,1.51,1.51,0,0,0-.11-.34.71.71,0,0,0-.18-.23.41.41,0,0,0-.25-.08.44.44,0,0,0-.25.08.71.71,0,0,0-.18.23,1.51,1.51,0,0,0-.11.34,3.1,3.1,0,0,0,0,.86,1.6,1.6,0,0,0,.11.35.84.84,0,0,0,.18.23.44.44,0,0,0,.25.08.41.41,0,0,0,.25-.08.84.84,0,0,0,.18-.23,1.6,1.6,0,0,0,.11-.35A2.86,2.86,0,0,0,91.6,18Z"/><path class="cls-3" d="M94.56,17a.73.73,0,0,0-.23-.16.58.58,0,0,0-.26-.06.41.41,0,0,0-.26.09.31.31,0,0,0-.11.28.33.33,0,0,0,.11.26,2.05,2.05,0,0,0,.35.2l.27.14a1.71,1.71,0,0,1,.26.21.92.92,0,0,1,.19.28,1,1,0,0,1,.08.4,1.19,1.19,0,0,1-.1.51,1,1,0,0,1-.26.36,1,1,0,0,1-.37.21,1.32,1.32,0,0,1-.44.08,1.52,1.52,0,0,1-.62-.12,1.58,1.58,0,0,1-.45-.28l.44-.6a.92.92,0,0,0,.28.19.71.71,0,0,0,.32.07A.39.39,0,0,0,94,19a.37.37,0,0,0,.11-.27.36.36,0,0,0-.13-.28,2.25,2.25,0,0,0-.37-.22,1.32,1.32,0,0,1-.29-.15,1.21,1.21,0,0,1-.24-.21.85.85,0,0,1-.16-.28,1,1,0,0,1-.06-.38,1.12,1.12,0,0,1,.1-.5,1,1,0,0,1,.27-.35,1.22,1.22,0,0,1,.37-.2A1.23,1.23,0,0,1,94,16.1a1.38,1.38,0,0,1,.55.1,1.29,1.29,0,0,1,.41.25Z"/><path class="cls-3" d="M98.74,18a2.57,2.57,0,0,1-.1.77,1.49,1.49,0,0,1-.27.55,1.22,1.22,0,0,1-.44.34,1.4,1.4,0,0,1-.56.11h-.8V16.2h.81a1.3,1.3,0,0,1,.56.11,1.09,1.09,0,0,1,.43.34,1.46,1.46,0,0,1,.27.56A2.5,2.5,0,0,1,98.74,18Zm-.37,0a2.1,2.1,0,0,0-.08-.65,1.31,1.31,0,0,0-.21-.46.83.83,0,0,0-.32-.27.86.86,0,0,0-.39-.09h-.44v2.94h.44a.86.86,0,0,0,.39-.09.83.83,0,0,0,.32-.27,1.31,1.31,0,0,0,.21-.46A2.1,2.1,0,0,0,98.37,18Z"/><path class="cls-3" d="M99.46,19.74V16.2H101v.31H99.82v1.24h1.08v.3H99.82v1.38H101v.31Z"/><path class="cls-3" d="M63.77,24.75a1.62,1.62,0,0,1-.52.08,1.13,1.13,0,0,1-.56-.13,1.15,1.15,0,0,1-.42-.37,1.93,1.93,0,0,1-.26-.58,3,3,0,0,1-.09-.76,2.89,2.89,0,0,1,.09-.74,1.75,1.75,0,0,1,.25-.59,1.35,1.35,0,0,1,.4-.39,1.09,1.09,0,0,1,.54-.14,1.23,1.23,0,0,1,.51.11.92.92,0,0,1,.38.33l-.24.23a.85.85,0,0,0-.28-.26.73.73,0,0,0-.35-.09.65.65,0,0,0-.4.12.94.94,0,0,0-.29.33,2.35,2.35,0,0,0-.17.49,2.92,2.92,0,0,0,0,.6,3.86,3.86,0,0,0,0,.61,1.71,1.71,0,0,0,.18.48.93.93,0,0,0,.3.32.78.78,0,0,0,.41.11,1,1,0,0,0,.31,0,.51.51,0,0,0,.22-.11v-1.2h-.54v-.3h.9v1.68A1.12,1.12,0,0,1,63.77,24.75Z"/><path class="cls-3" d="M67,24a1.33,1.33,0,0,1-.18.42,1,1,0,0,1-.33.29,1.35,1.35,0,0,1-1,0,.85.85,0,0,1-.33-.29A1.33,1.33,0,0,1,65,24a2.78,2.78,0,0,1,0-.52v-2.3h.37v2.26a2.34,2.34,0,0,0,0,.38,1.13,1.13,0,0,0,.11.34.61.61,0,0,0,.21.24.73.73,0,0,0,.7,0,.64.64,0,0,0,.22-.24,1.13,1.13,0,0,0,.1-.34,2.34,2.34,0,0,0,0-.38V21.22H67v2.3A2.14,2.14,0,0,1,67,24Z"/><path class="cls-3" d="M69.43,24.76l-.23-.88H68l-.24.88h-.37l.95-3.54h.51l.92,3.54Zm-.79-3.23h0l-.52,2.07h1.06Z"/><path class="cls-3" d="M70.86,21.52v3.24H70.5V21.52h-.72v-.3h1.81v.3Z"/><path class="cls-3" d="M72,24.76V21.22h1.51v.31H72.4v1.24h1.08v.3H72.4v1.38h1.21v.31Z"/><path class="cls-3" d="M76.84,24.76V21.68h0l-.92,3.08h-.35l-.91-3.08h0v3.08h-.35V21.22h.55l.9,3h0l.89-3h.57v3.54Z"/><path class="cls-3" d="M79.7,24.76l-.23-.88H78.31l-.23.88H77.7l1-3.54h.51l.93,3.54Zm-.79-3.23h0l-.52,2.07h1Z"/><path class="cls-3" d="M80.57,24.76V21.22H81v3.22H82v.32Z"/><path class="cls-3" d="M84.1,24.76l-.23-.88H82.71l-.24.88H82.1l1-3.54h.51l.93,3.54Zm-.79-3.23h0l-.52,2.07h1Z"/></svg>