<svg id="Capa_1" data-name="Capa 1" xmlns="http://www.w3.org/2000/svg" viewBox="0 0 110 30"><defs><style>.cls-1{fill:#e3761b;}.cls-2{fill:#006f3b;}.cls-3{fill:#7c341c;}.cls-4{fill:#cdc207;}.cls-5{fill:#00953c;}.cls-6{fill:#008dc1;}.cls-7{fill:#008c47;}.cls-8{fill:#6c6d6f;}</style></defs><title>adi-peru</title><path class="cls-1" d="M11.87,19.09,12,19,10.2,7.26A1.42,1.42,0,0,0,8.78,6.07H6A1.36,1.36,0,0,0,4.59,7.19L1.39,27.34h9.35V21.08A2.26,2.26,0,0,1,11.87,19.09Z"/><polygon class="cls-2" points="12.02 19 13.29 27.34 13.69 27.34 15.71 27.34 15.71 16.9 12.02 19"/><path class="cls-3" d="M11.87,19.09a2.26,2.26,0,0,0-1.13,2v6.26h2.55L12,19Z"/><path class="cls-4" d="M25.05,13V11.08a1.67,1.67,0,0,0-1-1.57l-7.6-3.42a.55.55,0,0,0-.78.52V16.9L17.29,16l3.94-2.25a.56.56,0,0,1,.84.5v13.1h1.39V14.78A1.77,1.77,0,0,1,25.05,13Z"/><path class="cls-5" d="M21.22,13.74,17.29,16l-1.58.91V27.34h6.36V14.24A.57.57,0,0,0,21.22,13.74Z"/><path class="cls-6" d="M28.79,13H25.05V27.34h5.56V14.78A1.84,1.84,0,0,0,28.79,13Z"/><path class="cls-7" d="M23.46,14.78V27.34h1.59V13A1.77,1.77,0,0,0,23.46,14.78Z"/><path class="cls-8" d="M35.14,26.82h-1l-.19.63h-.4l.9-2.74h.44l.89,2.74h-.41Zm-.94-.34H35l-.41-1.4Z"/><path class="cls-8" d="M36.08,27.09a1.14,1.14,0,0,0,.22.07l.25,0,.17,0a.59.59,0,0,0,.14-.06L37,27a.28.28,0,0,0,0-.13.21.21,0,0,0,0-.12.34.34,0,0,0-.08-.09l-.11-.06-.13,0-.14,0a.87.87,0,0,1-.35-.21A.41.41,0,0,1,36,26a.51.51,0,0,1,.18-.41.88.88,0,0,1,.55-.15l.29,0,.25.06,0,.16-.05.14-.2-.06a1,1,0,0,0-.25,0,.62.62,0,0,0-.25.05.16.16,0,0,0-.11.17.25.25,0,0,0,.1.19l.1.06.13,0,.17.06.17.07a.53.53,0,0,1,.14.11.56.56,0,0,1,.1.15.69.69,0,0,1,0,.22.51.51,0,0,1,0,.25.64.64,0,0,1-.16.2.71.71,0,0,1-.26.13,1.14,1.14,0,0,1-.33.05,1.51,1.51,0,0,1-.32,0L36,27.4a.4.4,0,0,1,0-.15Z"/><path class="cls-8" d="M38.64,27.5a1,1,0,0,1-.4-.08A.93.93,0,0,1,38,27.2a1.09,1.09,0,0,1-.17-.32,1.36,1.36,0,0,1-.05-.41,1.29,1.29,0,0,1,.05-.4,1.14,1.14,0,0,1,.17-.33.78.78,0,0,1,.29-.21.84.84,0,0,1,.4-.08.87.87,0,0,1,.4.08.74.74,0,0,1,.28.21.8.8,0,0,1,.17.33,1.29,1.29,0,0,1,.06.4,1.35,1.35,0,0,1-.06.41.76.76,0,0,1-.17.32.88.88,0,0,1-.28.22A1,1,0,0,1,38.64,27.5Zm0-.31A.44.44,0,0,0,39,27a1,1,0,0,0,.12-.53,1,1,0,0,0-.12-.53.46.46,0,0,0-.39-.18.43.43,0,0,0-.39.18,1,1,0,0,0-.12.53,1,1,0,0,0,.12.53A.42.42,0,0,0,38.64,27.19Z"/><path class="cls-8" d="M41.35,27.11a.5.5,0,0,1,0,.13.51.51,0,0,1,0,.17,1.38,1.38,0,0,1-.52.09.94.94,0,0,1-.73-.28,1.06,1.06,0,0,1-.25-.75,1.29,1.29,0,0,1,.06-.4,1,1,0,0,1,.18-.33.81.81,0,0,1,.3-.21.93.93,0,0,1,.42-.08,1.23,1.23,0,0,1,.28,0,.86.86,0,0,1,.23.06.86.86,0,0,1,0,.15,1.31,1.31,0,0,1,0,.15,1.43,1.43,0,0,0-.43-.07.52.52,0,0,0-.44.2.88.88,0,0,0-.14.51.74.74,0,0,0,.16.54.61.61,0,0,0,.45.17l.21,0A.73.73,0,0,0,41.35,27.11Z"/><path class="cls-8" d="M42,25.79h-.25a.2.2,0,0,0,0-.07v-.16a.17.17,0,0,0,0-.07h.62v2H42Zm-.08-.73a.31.31,0,0,1,0-.1v-.19a.25.25,0,0,1,0-.09h.41a.31.31,0,0,0,0,.09V25a.38.38,0,0,0,0,.1H41.9Z"/><path class="cls-8" d="M44,26.16a.36.36,0,0,0-.12-.31.5.5,0,0,0-.33-.09l-.25,0a.9.9,0,0,0-.22.06.61.61,0,0,1-.08-.3l.29-.07.3,0a.87.87,0,0,1,.58.17.72.72,0,0,1,.2.56V27.4l-.32.06a2.58,2.58,0,0,1-.39,0,1.67,1.67,0,0,1-.34,0,.68.68,0,0,1-.26-.11.58.58,0,0,1-.16-.19.68.68,0,0,1,0-.58.7.7,0,0,1,.18-.2.91.91,0,0,1,.26-.13,1.65,1.65,0,0,1,.32,0H44Zm0,.37h-.29a.6.6,0,0,0-.36.09.27.27,0,0,0-.13.26.4.4,0,0,0,0,.18.35.35,0,0,0,.11.1.33.33,0,0,0,.14,0h.32l.17,0Z"/><path class="cls-8" d="M46.24,27.11a.5.5,0,0,1,0,.13.51.51,0,0,1,0,.17,1.36,1.36,0,0,1-.51.09,1,1,0,0,1-.74-.28,1.11,1.11,0,0,1-.25-.75,1.29,1.29,0,0,1,.06-.4,1,1,0,0,1,.19-.33.78.78,0,0,1,.29-.21.93.93,0,0,1,.42-.08,1.19,1.19,0,0,1,.28,0,.86.86,0,0,1,.23.06.86.86,0,0,1,0,.15.53.53,0,0,1-.05.15,1.38,1.38,0,0,0-.43-.07.53.53,0,0,0-.44.2.88.88,0,0,0-.14.51.74.74,0,0,0,.16.54.61.61,0,0,0,.45.17l.22,0A.67.67,0,0,0,46.24,27.11Z"/><path class="cls-8" d="M46.87,25.79h-.24a.15.15,0,0,1,0-.07.22.22,0,0,1,0-.08.25.25,0,0,1,0-.08.17.17,0,0,1,0-.07h.61v2h-.37Zm-.08-.73s0-.06,0-.1v-.19s0-.07,0-.09h.41s0,.06,0,.09V25s0,.07,0,.1h-.41Z"/><path class="cls-8" d="M48.65,27.5a1,1,0,0,1-.4-.08A.88.88,0,0,1,48,27.2a.76.76,0,0,1-.17-.32,1.35,1.35,0,0,1-.06-.41,1.29,1.29,0,0,1,.06-.4.8.8,0,0,1,.17-.33.74.74,0,0,1,.28-.21.87.87,0,0,1,.4-.08.84.84,0,0,1,.4.08.78.78,0,0,1,.29.21,1.14,1.14,0,0,1,.17.33,1.68,1.68,0,0,1,.05.4,1.77,1.77,0,0,1-.05.41,1.09,1.09,0,0,1-.17.32.93.93,0,0,1-.29.22A1,1,0,0,1,48.65,27.5Zm0-.31A.42.42,0,0,0,49,27a1,1,0,0,0,.13-.53,1,1,0,0,0-.13-.53.43.43,0,0,0-.39-.18.46.46,0,0,0-.39.18,1,1,0,0,0-.12.53,1,1,0,0,0,.12.53A.44.44,0,0,0,48.65,27.19Zm0-2-.09,0h-.19l-.09,0,.44-.48h.48Z"/><path class="cls-8" d="M50.06,25.49h.32s0,.09,0,.16a1,1,0,0,1,0,.16,1.13,1.13,0,0,1,.1-.13.87.87,0,0,1,.14-.12l.17-.08a.78.78,0,0,1,.22,0,.59.59,0,0,1,.49.19.86.86,0,0,1,.16.57v1.24h-.37V26.31a.72.72,0,0,0-.09-.4.29.29,0,0,0-.26-.12.71.71,0,0,0-.21,0,.48.48,0,0,0-.16.12.72.72,0,0,0-.12.21,1,1,0,0,0,0,.31v1h-.38Z"/><path class="cls-8" d="M54.42,24.65h.37V27.4l-.32.07a2.41,2.41,0,0,1-.4,0,1.23,1.23,0,0,1-.39-.06.76.76,0,0,1-.32-.17.84.84,0,0,1-.22-.3,1.26,1.26,0,0,1-.08-.46,1.18,1.18,0,0,1,.07-.43,1.05,1.05,0,0,1,.2-.34,1,1,0,0,1,.31-.21,1.06,1.06,0,0,1,.4-.08l.2,0,.18,0Zm0,1.17-.16,0-.19,0a.54.54,0,0,0-.27.06.49.49,0,0,0-.19.16.55.55,0,0,0-.11.23,1,1,0,0,0,0,.3.71.71,0,0,0,.17.52.67.67,0,0,0,.46.15h.18a.33.33,0,0,0,.15,0Z"/><path class="cls-8" d="M55.68,26.56a.63.63,0,0,0,.17.47.65.65,0,0,0,.47.15,1.44,1.44,0,0,0,.51-.09.46.46,0,0,1,.05.14.78.78,0,0,1,0,.16l-.27.08a1.72,1.72,0,0,1-.34,0,1.21,1.21,0,0,1-.45-.08.81.81,0,0,1-.32-.21.92.92,0,0,1-.18-.32,1.31,1.31,0,0,1-.06-.41,1.29,1.29,0,0,1,.06-.4.74.74,0,0,1,.17-.33.72.72,0,0,1,.29-.22.86.86,0,0,1,.41-.08.78.78,0,0,1,.35.07.68.68,0,0,1,.26.18A.89.89,0,0,1,57,26a1,1,0,0,1,.06.36s0,.07,0,.11a.28.28,0,0,1,0,.1Zm1-.28a.64.64,0,0,0,0-.2.45.45,0,0,0-.08-.17.41.41,0,0,0-.14-.12.46.46,0,0,0-.21,0,.45.45,0,0,0-.35.14.58.58,0,0,0-.15.39Z"/><path class="cls-8" d="M59.68,24.65h.37V27.4l-.32.07a2.41,2.41,0,0,1-.4,0,1.23,1.23,0,0,1-.39-.06.71.71,0,0,1-.32-.17.73.73,0,0,1-.22-.3,1.08,1.08,0,0,1-.08-.46,1.18,1.18,0,0,1,.07-.43,1.05,1.05,0,0,1,.2-.34.85.85,0,0,1,.31-.21,1,1,0,0,1,.4-.08l.2,0,.18,0Zm0,1.17-.16,0-.2,0a.6.6,0,0,0-.27.06.46.46,0,0,0-.18.16.71.71,0,0,0-.12.23,1.39,1.39,0,0,0,0,.3.71.71,0,0,0,.17.52.65.65,0,0,0,.46.15h.18a.33.33,0,0,0,.15,0Z"/><path class="cls-8" d="M60.94,26.56a.56.56,0,0,0,.63.62,1.46,1.46,0,0,0,.52-.09.46.46,0,0,1,0,.14.78.78,0,0,1,0,.16l-.27.08a1.87,1.87,0,0,1-.34,0,1.26,1.26,0,0,1-.46-.08.85.85,0,0,1-.31-.21.92.92,0,0,1-.18-.32,1.31,1.31,0,0,1-.06-.41,1.29,1.29,0,0,1,.06-.4.74.74,0,0,1,.17-.33.76.76,0,0,1,.28-.22.91.91,0,0,1,.41-.08.8.8,0,0,1,.36.07.58.58,0,0,1,.25.18.9.9,0,0,1,.16.29,1,1,0,0,1,.05.36v.11s0,.08,0,.1Zm1-.28a.64.64,0,0,0,0-.2.67.67,0,0,0-.08-.17.53.53,0,0,0-.14-.12.46.46,0,0,0-.21,0,.45.45,0,0,0-.35.14.58.58,0,0,0-.15.39Z"/><path class="cls-8" d="M62.75,27.09a1.14,1.14,0,0,0,.22.07,1.07,1.07,0,0,0,.25,0l.17,0a.59.59,0,0,0,.14-.06.76.76,0,0,0,.09-.09.28.28,0,0,0,0-.13.21.21,0,0,0,0-.12.34.34,0,0,0-.08-.09l-.11-.06-.13,0-.14,0a.87.87,0,0,1-.35-.21.41.41,0,0,1-.11-.31.51.51,0,0,1,.18-.41.88.88,0,0,1,.55-.15l.29,0,.25.06,0,.16-.05.14-.2-.06a1,1,0,0,0-.25,0,.62.62,0,0,0-.25.05.16.16,0,0,0-.11.17.25.25,0,0,0,.1.19l.1.06.13,0,.17.06.17.07a.53.53,0,0,1,.14.11.56.56,0,0,1,.1.15.69.69,0,0,1,0,.22.66.66,0,0,1-.05.25.55.55,0,0,1-.17.2.66.66,0,0,1-.25.13,1.14,1.14,0,0,1-.33.05,1.51,1.51,0,0,1-.32,0l-.25-.07a.4.4,0,0,1,0-.15A1.66,1.66,0,0,1,62.75,27.09Z"/><path class="cls-8" d="M65.55,26.16a.36.36,0,0,0-.12-.31.5.5,0,0,0-.33-.09l-.25,0a.79.79,0,0,0-.22.06.61.61,0,0,1-.08-.3l.29-.07.3,0a.89.89,0,0,1,.58.17.72.72,0,0,1,.2.56V27.4l-.33.06a2.34,2.34,0,0,1-.39,0,1.66,1.66,0,0,1-.33,0,.68.68,0,0,1-.26-.11.58.58,0,0,1-.16-.19.65.65,0,0,1-.06-.29.54.54,0,0,1,.07-.29.49.49,0,0,1,.18-.2.79.79,0,0,1,.26-.13,1.65,1.65,0,0,1,.32,0h.33Zm0,.37h-.3a.64.64,0,0,0-.36.09.29.29,0,0,0-.12.26.3.3,0,0,0,0,.18.27.27,0,0,0,.11.1.33.33,0,0,0,.14,0h.32l.17,0Z"/><path class="cls-8" d="M66.49,25.49h.32a1,1,0,0,0,0,.15,1,1,0,0,1,0,.16.73.73,0,0,1,.21-.22.53.53,0,0,1,.34-.1h.12s0,.05,0,.07v.18s0,.06,0,.09h-.11a.69.69,0,0,0-.2,0A.54.54,0,0,0,67,26a.56.56,0,0,0-.12.2,1,1,0,0,0,0,.33v1h-.37Z"/><path class="cls-8" d="M67.9,25.49h.32s0,.09,0,.15a1,1,0,0,1,0,.16.73.73,0,0,1,.21-.22.53.53,0,0,1,.34-.1h.12s0,.05,0,.07v.18s0,.06,0,.09h-.11a.64.64,0,0,0-.2,0,.59.59,0,0,0-.17.1.43.43,0,0,0-.11.2,1,1,0,0,0,0,.33v1H67.9Z"/><path class="cls-8" d="M70.06,27.5a1,1,0,0,1-.4-.08.93.93,0,0,1-.29-.22,1.09,1.09,0,0,1-.17-.32,1.77,1.77,0,0,1,0-.41,1.68,1.68,0,0,1,0-.4,1.14,1.14,0,0,1,.17-.33.78.78,0,0,1,.29-.21.84.84,0,0,1,.4-.08.9.9,0,0,1,.69.29.92.92,0,0,1,.16.33,1.29,1.29,0,0,1,.06.4,1.35,1.35,0,0,1-.06.41.88.88,0,0,1-.16.32,1.06,1.06,0,0,1-.29.22A1,1,0,0,1,70.06,27.5Zm0-.31a.44.44,0,0,0,.39-.19,1,1,0,0,0,.12-.53,1,1,0,0,0-.12-.53.46.46,0,0,0-.39-.18.43.43,0,0,0-.39.18,1,1,0,0,0-.12.53,1,1,0,0,0,.12.53A.42.42,0,0,0,70.06,27.19Z"/><path class="cls-8" d="M71.46,24.65h.37v2.21a.72.72,0,0,0,0,.17.19.19,0,0,0,.05.09.12.12,0,0,0,.08,0h.24a.85.85,0,0,1,0,.29l-.13,0H72a.71.71,0,0,1-.21,0,.56.56,0,0,1-.17-.09.5.5,0,0,1-.11-.16.68.68,0,0,1,0-.26Z"/><path class="cls-8" d="M72.59,24.65H73v2.21A.42.42,0,0,0,73,27a.19.19,0,0,0,.05.09.12.12,0,0,0,.08,0h.24a1.19,1.19,0,0,1,0,.29l-.13,0h-.15a.64.64,0,0,1-.2,0,.56.56,0,0,1-.17-.09.31.31,0,0,1-.11-.16.67.67,0,0,1,0-.26Z"/><path class="cls-8" d="M74.77,26.16a.39.39,0,0,0-.11-.31.54.54,0,0,0-.33-.09l-.25,0a.86.86,0,0,0-.23.06.6.6,0,0,1-.07-.3l.28-.07.3,0a.87.87,0,0,1,.58.17.69.69,0,0,1,.2.56V27.4l-.32.06a2.58,2.58,0,0,1-.39,0,1.67,1.67,0,0,1-.34,0,.64.64,0,0,1-.25-.11.61.61,0,0,1-.17-.19.84.84,0,0,1,0-.29.65.65,0,0,1,.06-.29.7.7,0,0,1,.18-.2.84.84,0,0,1,.27-.13,1.55,1.55,0,0,1,.31,0h.33Zm0,.37h-.29a.6.6,0,0,0-.36.09.29.29,0,0,0-.13.26A.3.3,0,0,0,74,27a.24.24,0,0,0,.1.1.33.33,0,0,0,.14,0h.33l.16,0Z"/><path class="cls-8" d="M77,24.65h.38V27.4l-.33.07a2.41,2.41,0,0,1-.4,0,1.32,1.32,0,0,1-.39-.06.76.76,0,0,1-.32-.17,1,1,0,0,1-.22-.3,1.26,1.26,0,0,1-.08-.46,1.43,1.43,0,0,1,.07-.43,1.27,1.27,0,0,1,.2-.34,1,1,0,0,1,.31-.21,1.11,1.11,0,0,1,.41-.08l.2,0,.17,0Zm0,1.17-.16,0-.19,0a.6.6,0,0,0-.27.06.49.49,0,0,0-.19.16.55.55,0,0,0-.11.23,1.36,1.36,0,0,0,0,.3.71.71,0,0,0,.18.52.64.64,0,0,0,.45.15h.19a.32.32,0,0,0,.14,0Z"/><path class="cls-8" d="M78.74,27.5a1,1,0,0,1-.4-.08.93.93,0,0,1-.29-.22,1.09,1.09,0,0,1-.17-.32,1.36,1.36,0,0,1,0-.41,1.29,1.29,0,0,1,0-.4,1.14,1.14,0,0,1,.17-.33.78.78,0,0,1,.29-.21.84.84,0,0,1,.4-.08.87.87,0,0,1,.4.08.74.74,0,0,1,.28.21.8.8,0,0,1,.17.33,1.29,1.29,0,0,1,.06.4,1.35,1.35,0,0,1-.06.41.76.76,0,0,1-.17.32.88.88,0,0,1-.28.22A1,1,0,0,1,78.74,27.5Zm0-.31a.44.44,0,0,0,.39-.19,1,1,0,0,0,.12-.53,1,1,0,0,0-.12-.53.46.46,0,0,0-.39-.18.43.43,0,0,0-.39.18,1,1,0,0,0-.12.53,1,1,0,0,0,.12.53A.42.42,0,0,0,78.74,27.19Z"/><path class="cls-8" d="M80.14,25.49h.32s0,.09,0,.15a1,1,0,0,1,0,.16.73.73,0,0,1,.21-.22.53.53,0,0,1,.34-.1h.12s0,.05,0,.07v.18s0,.06,0,.09h-.11a.64.64,0,0,0-.2,0,.59.59,0,0,0-.17.1.55.55,0,0,0-.11.2,1,1,0,0,0,0,.33v1h-.38Z"/><path class="cls-8" d="M81.79,26.56A.63.63,0,0,0,82,27a.68.68,0,0,0,.47.15,1.54,1.54,0,0,0,.52-.09,1.09,1.09,0,0,1,0,.14.78.78,0,0,1,0,.16l-.28.08a1.69,1.69,0,0,1-.33,0,1.26,1.26,0,0,1-.46-.08.77.77,0,0,1-.31-.21.8.8,0,0,1-.19-.32,1.7,1.7,0,0,1,0-.41,1.68,1.68,0,0,1,0-.4,1,1,0,0,1,.17-.33.86.86,0,0,1,.7-.3.83.83,0,0,1,.36.07.64.64,0,0,1,.25.18.9.9,0,0,1,.16.29,1.36,1.36,0,0,1,0,.36v.11a.41.41,0,0,0,0,.1Zm1-.28a.64.64,0,0,0,0-.2.46.46,0,0,0-.09-.17.33.33,0,0,0-.14-.12.4.4,0,0,0-.2,0,.47.47,0,0,0-.36.14.7.7,0,0,0-.15.39Z"/><path class="cls-8" d="M83.59,27.09l.23.07a1,1,0,0,0,.25,0l.16,0a.45.45,0,0,0,.14-.06l.1-.09a.28.28,0,0,0,0-.13.21.21,0,0,0,0-.12s0-.06-.07-.09l-.11-.06-.14,0-.13,0a1,1,0,0,1-.36-.21.45.45,0,0,1-.11-.31.52.52,0,0,1,.19-.41.83.83,0,0,1,.54-.15,1.36,1.36,0,0,1,.29,0l.25.06a1,1,0,0,1,0,.16l-.06.14-.2-.06a1,1,0,0,0-.25,0,.7.7,0,0,0-.25.05.17.17,0,0,0-.1.17.18.18,0,0,0,0,.11.27.27,0,0,0,.07.08l.11.06.13,0,.16.06.18.07.14.11a.38.38,0,0,1,.09.15.48.48,0,0,1,0,.22.51.51,0,0,1-.06.25.45.45,0,0,1-.16.2.66.66,0,0,1-.25.13,1.14,1.14,0,0,1-.33.05,1.51,1.51,0,0,1-.32,0l-.26-.07a.83.83,0,0,1,0-.15A1.42,1.42,0,0,1,83.59,27.09Z"/><path class="cls-8" d="M86.38,25.79h-.25s0,0,0-.07v-.16s0,0,0-.07h.62v2h-.37Zm-.08-.73a.31.31,0,0,1,0-.1.28.28,0,0,1,0-.09.38.38,0,0,1,0-.1.25.25,0,0,1,0-.09h.4a.25.25,0,0,1,0,.09V25a.31.31,0,0,1,0,.1h-.4Z"/><path class="cls-8" d="M87.36,25.49h.32a1.57,1.57,0,0,1,0,.16c0,.06,0,.12,0,.16a.57.57,0,0,1,.1-.13.77.77,0,0,1,.13-.12.75.75,0,0,1,.18-.08.66.66,0,0,1,.21,0,.61.61,0,0,1,.5.19.86.86,0,0,1,.16.57v1.24h-.38V26.31a.83.83,0,0,0-.08-.4.32.32,0,0,0-.27-.12.64.64,0,0,0-.2,0,.52.52,0,0,0-.17.12.72.72,0,0,0-.12.21,1.37,1.37,0,0,0,0,.31v1h-.38Z"/><path class="cls-8" d="M89.57,25.49h.32s0,.09,0,.15a1,1,0,0,1,0,.16.51.51,0,0,1,.09-.13.43.43,0,0,1,.12-.11.48.48,0,0,1,.16-.08.64.64,0,0,1,.2,0,.62.62,0,0,1,.36.09.65.65,0,0,1,.19.26.77.77,0,0,1,.09-.13l.12-.11a.48.48,0,0,1,.16-.08.6.6,0,0,1,.2,0,.59.59,0,0,1,.49.19.89.89,0,0,1,.16.56v1.25h-.38V26.31a.81.81,0,0,0-.08-.39.29.29,0,0,0-.27-.13.38.38,0,0,0-.31.14.61.61,0,0,0-.12.41v1.11h-.37V26.29a.81.81,0,0,0-.08-.39.26.26,0,0,0-.24-.12.34.34,0,0,0-.18,0,.44.44,0,0,0-.15.12,1,1,0,0,0-.1.21,1.36,1.36,0,0,0,0,.3v1h-.37Z"/><path class="cls-8" d="M93.62,27.5a1,1,0,0,1-.4-.08.93.93,0,0,1-.29-.22.9.9,0,0,1-.17-.32,1.36,1.36,0,0,1-.05-.41,1.29,1.29,0,0,1,.05-.4.94.94,0,0,1,.17-.33.78.78,0,0,1,.29-.21.82.82,0,0,1,.4-.08.87.87,0,0,1,.4.08.74.74,0,0,1,.28.21.8.8,0,0,1,.17.33,1.29,1.29,0,0,1,.06.4,1.35,1.35,0,0,1-.06.41.76.76,0,0,1-.17.32.88.88,0,0,1-.28.22A1,1,0,0,1,93.62,27.5Zm0-.31A.44.44,0,0,0,94,27a1,1,0,0,0,.12-.53,1,1,0,0,0-.12-.53.46.46,0,0,0-.39-.18.43.43,0,0,0-.39.18,1,1,0,0,0-.12.53,1,1,0,0,0,.12.53A.42.42,0,0,0,93.62,27.19Z"/><path class="cls-8" d="M95,24.65h.38v1.08a.51.51,0,0,1,.21-.2.75.75,0,0,1,.35-.08,1.14,1.14,0,0,1,.33.05.64.64,0,0,1,.25.18.83.83,0,0,1,.17.31,1.4,1.4,0,0,1,.06.43,1.07,1.07,0,0,1-.29.79,1.11,1.11,0,0,1-.82.29,2.09,2.09,0,0,1-.34,0,1.67,1.67,0,0,1-.3-.07Zm.38,2.48.14,0h.17a.75.75,0,0,0,.26,0,.57.57,0,0,0,.21-.13.73.73,0,0,0,.13-.23.81.81,0,0,0,.06-.33.94.94,0,0,0-.11-.49.41.41,0,0,0-.37-.18.47.47,0,0,0-.17,0,.51.51,0,0,0-.16.09.43.43,0,0,0-.12.17.62.62,0,0,0,0,.25Z"/><path class="cls-8" d="M97.39,25.79h-.25s0,0,0-.07v-.16s0,0,0-.07h.62v2h-.37Zm-.09-.73a.38.38,0,0,0,0-.1v-.19a.31.31,0,0,0,0-.09h.41a.25.25,0,0,1,0,.09V25a.31.31,0,0,1,0,.1H97.3Z"/><path class="cls-8" d="M98.36,24.65h.38v2.21a.42.42,0,0,0,0,.17.19.19,0,0,0,0,.09.13.13,0,0,0,.07,0h.25a1.19,1.19,0,0,1,0,.29l-.13,0h-.15a.64.64,0,0,1-.2,0,.56.56,0,0,1-.17-.09.31.31,0,0,1-.11-.16.67.67,0,0,1,0-.26Z"/><path class="cls-8" d="M99.62,25.79h-.25a.2.2,0,0,0,0-.07v-.16a.17.17,0,0,0,0-.07H100v2h-.37Zm-.08-.73a.31.31,0,0,1,0-.1v-.19a.25.25,0,0,1,0-.09H100a.31.31,0,0,0,0,.09V25a.38.38,0,0,0,0,.1h-.41Z"/><path class="cls-8" d="M101.64,26.16a.39.39,0,0,0-.11-.31.55.55,0,0,0-.34-.09l-.25,0a.9.9,0,0,0-.22.06.61.61,0,0,1-.08-.3l.29-.07.3,0a.87.87,0,0,1,.58.17.72.72,0,0,1,.2.56V27.4l-.32.06a2.58,2.58,0,0,1-.39,0,1.67,1.67,0,0,1-.34,0,.68.68,0,0,1-.26-.11.58.58,0,0,1-.16-.19.68.68,0,0,1,0-.58.7.7,0,0,1,.18-.2.84.84,0,0,1,.27-.13,1.46,1.46,0,0,1,.31,0h.33Zm0,.37h-.29a.6.6,0,0,0-.36.09.27.27,0,0,0-.13.26.4.4,0,0,0,0,.18.35.35,0,0,0,.11.1.33.33,0,0,0,.14,0h.32l.17,0Z"/><path class="cls-8" d="M102.58,25.49h.32s0,.09,0,.15a1,1,0,0,1,0,.16,1.1,1.1,0,0,1,.21-.22.53.53,0,0,1,.34-.1h.12s0,.05,0,.07v.18s0,.06,0,.09h-.12a.58.58,0,0,0-.19,0,.48.48,0,0,0-.17.1.56.56,0,0,0-.12.2,1,1,0,0,0,0,.33v1h-.38Z"/><path class="cls-8" d="M104.11,25.79h-.25s0,0,0-.07v-.16s0,0,0-.07h.62v2h-.37Zm-.08-.73a.31.31,0,0,1,0-.1v-.19a.25.25,0,0,1,0-.09h.41v.09a.38.38,0,0,1,0,.1.28.28,0,0,1,0,.09v.1H104Z"/><path class="cls-8" d="M105.89,27.5a1,1,0,0,1-.4-.08.93.93,0,0,1-.29-.22.9.9,0,0,1-.17-.32,1.36,1.36,0,0,1,0-.41,1.29,1.29,0,0,1,0-.4.94.94,0,0,1,.17-.33.78.78,0,0,1,.29-.21.84.84,0,0,1,.4-.08.87.87,0,0,1,.4.08.74.74,0,0,1,.28.21.8.8,0,0,1,.17.33,1.29,1.29,0,0,1,.06.4,1.35,1.35,0,0,1-.06.41.76.76,0,0,1-.17.32.88.88,0,0,1-.28.22A1,1,0,0,1,105.89,27.5Zm0-.31a.44.44,0,0,0,.39-.19,1,1,0,0,0,.12-.53,1,1,0,0,0-.12-.53.46.46,0,0,0-.39-.18.43.43,0,0,0-.39.18,1,1,0,0,0-.12.53,1,1,0,0,0,.12.53A.42.42,0,0,0,105.89,27.19Z"/><path class="cls-8" d="M107.26,27.09l.23.07a1,1,0,0,0,.24,0l.17,0a.59.59,0,0,0,.14-.06l.1-.09a.28.28,0,0,0,0-.13.21.21,0,0,0,0-.12.31.31,0,0,0-.07-.09l-.11-.06-.14,0-.13,0a.92.92,0,0,1-.36-.21.45.45,0,0,1-.11-.31.49.49,0,0,1,.19-.41.83.83,0,0,1,.54-.15,1.36,1.36,0,0,1,.29,0l.25.06a.5.5,0,0,1,0,.16.78.78,0,0,1,0,.14l-.2-.06a1,1,0,0,0-.25,0,.66.66,0,0,0-.25.05.18.18,0,0,0-.11.17.18.18,0,0,0,0,.11.27.27,0,0,0,.07.08l.11.06.13,0,.16.06.18.07.14.11a.38.38,0,0,1,.09.15.48.48,0,0,1,0,.22.51.51,0,0,1-.06.25.53.53,0,0,1-.16.2.66.66,0,0,1-.25.13,1.14,1.14,0,0,1-.33.05,1.51,1.51,0,0,1-.32,0l-.26-.07a.83.83,0,0,1,0-.15A1.42,1.42,0,0,1,107.26,27.09Z"/><path d="M38.62,6.33c.31,0,.61-.08.89-.1s.58,0,.92,0,.59,0,.87,0,.58,0,.92.1l5,15.88a11.87,11.87,0,0,1-1.76.13,9.81,9.81,0,0,1-1.64-.13L42.91,19H37.65l-.91,3.18a9,9,0,0,1-1.52.13,9.63,9.63,0,0,1-1.61-.13Zm3.54,10L40.32,9.68,38.4,16.36Z"/><path d="M46.91,6.33c.62-.08,1.26-.14,1.94-.19s1.43-.08,2.25-.08c2.79,0,4.9.69,6.35,2.08s2.18,3.46,2.18,6.23-.74,4.83-2.21,6.14-3.66,2-6.56,2c-.75,0-1.44,0-2.08-.08s-1.25-.12-1.87-.19Zm3.24,13.32.51,0c.21,0,.46,0,.75,0a7.1,7.1,0,0,0,1.89-.23,3.42,3.42,0,0,0,1.52-.85,4.29,4.29,0,0,0,1-1.66,8,8,0,0,0,.38-2.67,8,8,0,0,0-.38-2.65,4.3,4.3,0,0,0-1-1.68,3.68,3.68,0,0,0-1.47-.87,6,6,0,0,0-1.76-.25h-.72a5.08,5.08,0,0,0-.72.05Z"/><path d="M60.56,6.33a9.82,9.82,0,0,1,1.61-.14,10.38,10.38,0,0,1,1.64.14V22.21a10.19,10.19,0,0,1-1.62.13,10,10,0,0,1-1.63-.13Z"/><path d="M67.26,6.33l.62-.08q.39-.06.87-.09l1-.07.9,0A9.62,9.62,0,0,1,73,6.33a4.77,4.77,0,0,1,1.82.84A3.79,3.79,0,0,1,76,8.66a5.3,5.3,0,0,1,.42,2.22,5.4,5.4,0,0,1-.47,2.38,4.5,4.5,0,0,1-1.28,1.62,5.38,5.38,0,0,1-1.88.9,8.65,8.65,0,0,1-2.24.29l-.89,0L68.78,16v6.23a3.27,3.27,0,0,1-.35,0H67.6a2.68,2.68,0,0,1-.34,0Zm1.52,8.24.39,0,.33,0,.38,0h.54A9.16,9.16,0,0,0,72,14.52a3.78,3.78,0,0,0,1.4-.54,2.84,2.84,0,0,0,1-1.15,4.17,4.17,0,0,0,.39-1.95,3.92,3.92,0,0,0-.3-1.63,2.66,2.66,0,0,0-.85-1.05,3.7,3.7,0,0,0-1.35-.57,7.94,7.94,0,0,0-1.76-.18c-.39,0-.72,0-1,0s-.54,0-.73.07Z"/><path d="M77.16,6.33h8.5a2.5,2.5,0,0,1,0,.32c0,.12,0,.24,0,.36s0,.23,0,.37a2.68,2.68,0,0,1,0,.34h-7v5.37h5.61a2.33,2.33,0,0,1,0,.32c0,.12,0,.24,0,.36s0,.23,0,.37a2.68,2.68,0,0,1,0,.34H78.68v6.34h7.18c0,.09,0,.19,0,.32s0,.25,0,.36,0,.23,0,.37,0,.25,0,.34h-8.7Z"/><path d="M87.34,6.26l.85-.08.71-.06c.22,0,.46,0,.71,0h.89a10.52,10.52,0,0,1,2.09.22A5.38,5.38,0,0,1,94.43,7,4.11,4.11,0,0,1,95.74,8.5a4.7,4.7,0,0,1,.5,2.31,3.79,3.79,0,0,1-.31,1.57,4.78,4.78,0,0,1-.8,1.27,5.34,5.34,0,0,1-1.15,1,8.44,8.44,0,0,1-1.34.68l-.18.06,5.06,6.85a2.12,2.12,0,0,1-.44,0h-.87a2.09,2.09,0,0,1-.43,0l-5.57-7.36v-.08l.49-.14a8.36,8.36,0,0,0,1.45-.52,5.17,5.17,0,0,0,1.25-.77,3.79,3.79,0,0,0,.88-1.07,3.06,3.06,0,0,0,.33-1.46,3.14,3.14,0,0,0-1.06-2.58,4.42,4.42,0,0,0-2.88-.87c-.3,0-.59,0-.86,0s-.58,0-1,.09V22.21a3.46,3.46,0,0,1-.37,0h-.8a3.27,3.27,0,0,1-.35,0Z"/><path d="M97.79,6.33l.37,0H99l.35,0v9.58a10.52,10.52,0,0,0,.23,2.36,4.27,4.27,0,0,0,.71,1.58,2.68,2.68,0,0,0,1.21.89,4.74,4.74,0,0,0,1.74.28,3.56,3.56,0,0,0,3-1.17,6.35,6.35,0,0,0,.94-3.94V6.33l.35,0h.8l.37,0v9.78a7.4,7.4,0,0,1-1.3,4.77,6.08,6.08,0,0,1-8.22,0,7.4,7.4,0,0,1-1.3-4.77ZM103.62,5a5.19,5.19,0,0,1-1,.07A4.08,4.08,0,0,1,101.9,5l2.45-2.45a8.37,8.37,0,0,1,1-.07,9.19,9.19,0,0,1,1.08.07Z"/></svg>