<svg id="Capa_1" data-name="Capa 1" xmlns="http://www.w3.org/2000/svg" viewBox="0 0 189 53"><defs><style>.cls-1{fill:#231f20;}</style></defs><title>gp</title><rect class="cls-1" x="69.04" y="3.19" width="0.8" height="46.62"/><path class="cls-1" d="M32.72,20.1h8.94V31.18l-2.88.64a26.89,26.89,0,0,1-5.17.52,15.43,15.43,0,0,1-4.32-.57A8.78,8.78,0,0,1,23,26.4,14,14,0,0,1,22,21a14.33,14.33,0,0,1,1-5.41,9,9,0,0,1,2.14-3.28A9.65,9.65,0,0,1,28.91,10a13.12,13.12,0,0,1,4.26-.69,14.24,14.24,0,0,1,3.58.48,7.75,7.75,0,0,1,3.3,1.78,6.13,6.13,0,0,1,1.81,4.26l0,1H37.35l0-.63q-.19-3.48-4.38-3.45a5.53,5.53,0,0,0-5.59,3.74A11.74,11.74,0,0,0,26.54,21q0,8,7,7.94a13.29,13.29,0,0,0,2.75-.32l.81-.18V23.54H32.72Z"/><path class="cls-1" d="M45.4,9.75h7.72c.86,0,1.67.06,2.43.14a9,9,0,0,1,2.23.53,5.47,5.47,0,0,1,2.83,2.49,7.09,7.09,0,0,1,.91,3.67q0,3.71-2.38,5.36a11.08,11.08,0,0,1-5.82,1.49l-1.55,0H49.94V31.9H45.4Zm4.54,3.44V20H51.8a14.7,14.7,0,0,0,1.88-.09q3.26-.33,3.3-3.41c0-2.15-1.2-3.25-3.63-3.32H49.94Z"/><path class="cls-1" d="M85.17,12.82a2,2,0,0,0-.29-1,2,2,0,0,0-1.7-.79c-2.48,0-3,2.32-3,3.88a4.09,4.09,0,0,0,.85,2.73,2.89,2.89,0,0,0,2.4.88,4.93,4.93,0,0,0,1.66-.2V16.15h-2V14.46H87.3v5.09a10.63,10.63,0,0,1-3.73.56c-2.32,0-3.52-.56-4.32-1.35A5.29,5.29,0,0,1,77.89,15c0-3.61,2.26-5.54,5.34-5.54a4.6,4.6,0,0,1,3.47,1.28,3.14,3.14,0,0,1,.74,2.13Z"/><path class="cls-1" d="M92.17,12.6a3.45,3.45,0,0,1,3.7,3.73,3.53,3.53,0,0,1-3.74,3.81,3.45,3.45,0,0,1-3.64-3.75A3.48,3.48,0,0,1,92.17,12.6Zm0,6.09c.92,0,1.54-.55,1.54-2.44,0-.95-.18-2.26-1.57-2.26s-1.53,1.76-1.53,2.41C90.64,18,91.17,18.69,92.2,18.69Zm.2-7H91.27l1.17-2.05h1.89Z"/><path class="cls-1" d="M97.05,14.1A11.85,11.85,0,0,0,97,12.77h2l.07.91a2.44,2.44,0,0,1,2.2-1.07A2.17,2.17,0,0,1,103.51,14a2.37,2.37,0,0,1,2.28-1.33A2.31,2.31,0,0,1,108,13.77a4.11,4.11,0,0,1,.36,2.1v4h-2.1V15.7c0-.76-.12-1.61-1.2-1.61-1.26,0-1.28,1.17-1.28,2.23v3.56h-2.11V15.66c0-.55,0-1.57-1.17-1.57s-1.31,1.13-1.31,1.61v4.18h-2.1Z"/><path class="cls-1" d="M111.58,16.85c0,.47,0,1.91,1.45,1.91a1.17,1.17,0,0,0,1.24-1h1.9a2.39,2.39,0,0,1-.68,1.55,3.45,3.45,0,0,1-2.49.83,3.52,3.52,0,0,1-2.51-.89,3.84,3.84,0,0,1-.92-2.77,3.92,3.92,0,0,1,1.48-3.37,3.56,3.56,0,0,1,2-.59,3,3,0,0,1,2.87,1.72,5.22,5.22,0,0,1,.42,2.6Zm2.65-1.31c0-.32,0-1.59-1.24-1.59-.92,0-1.3.76-1.34,1.59Z"/><path class="cls-1" d="M116.85,18.05l3.61-3.89H117V12.77h5.83v1.79l-3.6,3.89h3.75v1.43h-6.08Z"/><path class="cls-1" d="M123.94,9.72h3.14c1.47,0,2.7.1,3.54,1.11a2.9,2.9,0,0,1,.62,1.91,3.14,3.14,0,0,1-1.29,2.7,4.4,4.4,0,0,1-2.31.48h-1.48v4h-2.22Zm2.16,4.58H127c.71,0,2,0,2-1.55,0-1.38-1.17-1.38-1.79-1.38h-1.1Z"/><path class="cls-1" d="M132.13,9.69h2.09V19.88h-2.09Z"/><path class="cls-1" d="M139.9,19.88a5.68,5.68,0,0,1-.07-1,2.37,2.37,0,0,1-2.13,1.14,2.32,2.32,0,0,1-1.77-.56,2.17,2.17,0,0,1-.62-1.57,2.36,2.36,0,0,1,1.5-2.21,7.54,7.54,0,0,1,2.82-.39,3,3,0,0,0-.09-1,1,1,0,0,0-.94-.59,1,1,0,0,0-.79.4,1.07,1.07,0,0,0-.15.63h-2a2,2,0,0,1,.8-1.68,3.77,3.77,0,0,1,2.16-.58,3.4,3.4,0,0,1,2.53.92,2.82,2.82,0,0,1,.5,1.75v2.86a8.32,8.32,0,0,0,.17,1.8Zm-2.56-2.2a1,1,0,0,0,1,1,1.18,1.18,0,0,0,.89-.41,2.59,2.59,0,0,0,.39-1.76C138.29,16.42,137.34,16.84,137.34,17.68Z"/><path class="cls-1" d="M147.23,19.79a6.5,6.5,0,0,1-1.62.22c-2.1,0-2.1-1.32-2.1-1.92v-3.9h-1.36V12.81h1.36v-1.4l2.07-.76v2.16h1.7v1.38h-1.7V17.4c0,.65,0,1.06.95,1.06a4.9,4.9,0,0,0,.7,0Z"/><path class="cls-1" d="M149.5,16.85c0,.47,0,1.91,1.46,1.91a1.17,1.17,0,0,0,1.24-1h1.9a2.39,2.39,0,0,1-.68,1.55,3.45,3.45,0,0,1-2.49.83,3.52,3.52,0,0,1-2.51-.89,3.84,3.84,0,0,1-.92-2.77A3.89,3.89,0,0,1,149,13.12a3.55,3.55,0,0,1,2-.59,3.05,3.05,0,0,1,2.88,1.72,5.22,5.22,0,0,1,.42,2.6Zm2.65-1.31c0-.32,0-1.59-1.24-1.59-.91,0-1.29.76-1.34,1.59Z"/><path class="cls-1" d="M155.24,14.51c0-.33-.05-1.36-.1-1.77h2l.05,1.36a2.14,2.14,0,0,1,2.42-1.38V14.6c-2.11-.2-2.24.89-2.24,1.77v3.51h-2.09Z"/><path class="cls-1" d="M163.31,12.6A3.44,3.44,0,0,1,167,16.33a3.53,3.53,0,0,1-3.74,3.81,3.44,3.44,0,0,1-3.63-3.75A3.48,3.48,0,0,1,163.31,12.6Zm0,6.09c.91,0,1.53-.55,1.53-2.44,0-.95-.18-2.26-1.56-2.26-1.53,0-1.54,1.76-1.54,2.41C161.77,18,162.31,18.69,163.34,18.69Z"/><path class="cls-1" d="M77.46,31.84l3.22-8.14h.86l3.25,8.14H84l-.87-2.2H79.07l-.86,2.2ZM82.86,29,81.1,24.38,79.31,29Z"/><path class="cls-1" d="M86.12,31.84h-.68V27.46c0-.44,0-.9,0-1.28h.7l0,.84h0a1.46,1.46,0,0,1,1.28-1c.22,0,.45,0,.67,0v.66c-.13,0-.28-.05-.41-.05-1,0-1.54.72-1.56,1.81Z"/><path class="cls-1" d="M92.8,26.18h.69c0,.38,0,.84,0,1.28V34h-.68V31h0a2.3,2.3,0,0,1-2,1c-1.65,0-2.29-1.6-2.29-3s.64-3,2.32-3a2.29,2.29,0,0,1,1.94,1v0h0v0Zm-1.86.45c-1.29,0-1.73,1.2-1.73,2.28s.33,2.48,1.62,2.48c1.48,0,1.93-1.23,1.93-2.51S92.25,26.63,90.94,26.63Z"/><path class="cls-1" d="M98.58,26.18h.68v4.39c0,.44,0,.89.06,1.27h-.7l0-.83,0,0a2,2,0,0,1-1.77,1,2,2,0,0,1-2-2.29V26.18h.67v3.65A1.4,1.4,0,0,0,97,31.39c1.12,0,1.62-.94,1.62-1.95Z"/><path class="cls-1" d="M101.47,24.55h-.79V23.7h.79Zm0,1.63v5.66h-.68V26.18Z"/><path class="cls-1" d="M103.38,26.8h-1.13v-.62h1.13V25l.67-.3v1.5h1.29v.62h-1.29v3.79a.7.7,0,0,0,.78.8,1.87,1.87,0,0,0,.59-.07v.59a2.68,2.68,0,0,1-.69.1c-1.43,0-1.35-.91-1.35-1.68Z"/><path class="cls-1" d="M106.71,29.17c0,1.2.57,2.22,2,2.22A1.68,1.68,0,0,0,110.3,30H111a2.37,2.37,0,0,1-2.56,2c-1.69,0-2.48-1.45-2.48-3s.85-3,2.53-3c1.89,0,2.58,1.39,2.58,3.16Zm3.64-.62a1.82,1.82,0,0,0-1.84-1.92,1.87,1.87,0,0,0-1.78,1.92Z"/><path class="cls-1" d="M115.82,27.92c-.06-.87-.61-1.29-1.55-1.29s-1.68,1.08-1.68,2.37.65,2.39,1.68,2.39a1.44,1.44,0,0,0,1.55-1.32h.73A2,2,0,0,1,114.34,32c-1.69,0-2.48-1.45-2.48-3s.85-3,2.53-3a2,2,0,0,1,2.16,1.91Z"/><path class="cls-1" d="M118,26.8H116.9v-.62H118V25l.68-.3v1.5H120v.62h-1.28v3.79a.7.7,0,0,0,.78.8,1.85,1.85,0,0,0,.58-.07v.59a2.61,2.61,0,0,1-.69.1C118,32,118,31.1,118,30.33Z"/><path class="cls-1" d="M125.83,29a2.66,2.66,0,1,1-5.27,0,2.66,2.66,0,1,1,5.27,0Zm-2.63-2.38c-1.37,0-1.91,1.33-1.91,2.38s.54,2.38,1.91,2.38,1.9-1.33,1.9-2.38S124.56,26.63,123.2,26.63Z"/><path class="cls-1" d="M128.78,26c1.07,0,2,.37,2.06,1.57h-.73c-.07-.71-.7-.95-1.4-.95s-1.27.25-1.27.92c0,.83,1.09.75,2.62,1.29a1.38,1.38,0,0,1,1,1.32c0,1.27-1.18,1.85-2.38,1.85-1,0-2.1-.46-2.13-1.71h.74c0,.84.8,1.09,1.56,1.09s1.48-.34,1.48-1.13-.89-1-1.79-1.15-1.8-.47-1.8-1.52S127.79,26,128.78,26Z"/></svg>