<svg id="Capa_1" data-name="Capa 1" xmlns="http://www.w3.org/2000/svg" viewBox="0 0 189 53"><defs><style>.cls-1{fill:#db0d16;}</style></defs><title>rs</title><path class="cls-1" d="M48.27,39.82c.49,1,.69,1.29,1.39,2.48l.4.7.29-.5c.7-1.19,1-1.79,1.79-3.18h.4l.1.6c.1.79.2,1.59.3,2.48.1.4.2,1.49.3,1.79h-1v-.3c0-.1-.1-.79-.1-.89,0-.3-.2-1.79-.2-2.09-.59,1-1.19,2.09-1.78,3.18h-.3a19.48,19.48,0,0,1-1-1.79c-.1-.2-.59-1.09-.69-1.29-.1,1-.3,2.09-.3,3.08h-.6v-.2c.2-.89.6-3.77.7-4.57h.4Z"/><path class="cls-1" d="M60.69,43.4l-.3-.8H58.5c-.2.6-.49,1.09-.59,1.49h-.7l.9-1.79c.49-1,1-2,1.49-3.08H60c.4,1,.8,2,1.1,2.59s.79,1.69,1.09,2.38H61.09ZM59.4,40.51l-.8,1.69h1.49Z"/><path class="cls-1" d="M68.94,42a2.18,2.18,0,0,0,.4.5c.59.8.79,1,1.29,1.59H69.34c-.1-.2-.3-.4-.4-.59-.4-.6-.8-1.2-1.19-1.69h-.2v2.28h-1a27.72,27.72,0,0,0,.1-2.88V39.32h2a2.59,2.59,0,0,1,1.19.3,1.13,1.13,0,0,1,.3.79,1.32,1.32,0,0,1-1.29,1.3Zm-1.39-.49H68a.92.92,0,0,0,1-.9v-.1a.77.77,0,0,0-.3-.69,1.45,1.45,0,0,0-.7-.2h-.49Z"/><path class="cls-1" d="M75.1,39.32h1a3.65,3.65,0,0,1-.1,1.09,4.48,4.48,0,0,0,0,1.1,15.38,15.38,0,0,0,1.3-1.2,9.25,9.25,0,0,1,1-1h.8a14.63,14.63,0,0,0-1.2,1.09l-1,1,.4.49c.59.8,1.29,1.5,2,2.29H78a20.7,20.7,0,0,0-1.89-2.29,16.73,16.73,0,0,0,.1,2.29h-1A27,27,0,0,0,75.3,41C75.2,40.41,75.2,39.92,75.1,39.32Z"/><path class="cls-1" d="M84.74,41.41h1.59v.4H84.74v1.88l1.79-.1V44H83.75V41.51a22.58,22.58,0,0,0-.1-2.39h2.68v.5H84.64v1.79Z"/><path class="cls-1" d="M93.29,43.2v1h-1c0-.5.1-1.09.1-1.59V39.82H90.8v-.6h4v.5H93.29V43.2Z"/><path class="cls-1" d="M109.49,41.81a4.08,4.08,0,0,1-1,1.19l1,1v.1h-1.2l-.39-.5a2.45,2.45,0,0,1-1.59.6,2.92,2.92,0,0,1-.9-.2,1.08,1.08,0,0,1-.59-1c0-.8.69-1.19,1.29-1.49a1.61,1.61,0,0,1-.5-1.1,1.2,1.2,0,0,1,1.19-1.09h.1c.8,0,1,.5,1,.9s-.4.79-.9,1.09c.5.59.7.89,1.19,1.39a2.35,2.35,0,0,0,.7-1.39h.1ZM107.7,43.4a19.5,19.5,0,0,1-1.39-1.59,1.07,1.07,0,0,0-.6,1,.93.93,0,0,0,1,1h.1A1,1,0,0,0,107.7,43.4Zm-.8-2.19a1.26,1.26,0,0,0,.7-1,.56.56,0,0,0-.5-.6h0a.64.64,0,0,0-.59.6h0A1.52,1.52,0,0,0,106.9,41.21Z"/><path class="cls-1" d="M120.22,41.31V39.42h1c0,1.09-.1,2-.1,3v1.29h.1a10.72,10.72,0,0,0,1.69-.1v.5h-2.78c0-.1.1-1.79.1-1.89Z"/><path class="cls-1" d="M127.77,39.32h1a19.92,19.92,0,0,0-.1,2.49,16,16,0,0,0,.1,2.38h-1a29.75,29.75,0,0,0,.1-3.18C127.87,40.41,127.77,39.92,127.77,39.32Z"/><path class="cls-1" d="M134.93,41.41h1.69v.4h-1.69v2.38a1.7,1.7,0,0,0-1,0,21.41,21.41,0,0,0,.1-2.48,15.38,15.38,0,0,0-.1-2.29h2.79v.5c-.7,0-1.2-.1-1.79-.1Z"/><path class="cls-1" d="M142.48,41.41h1.59v.4h-1.59v1.88l1.79-.1V44h-2.78V41.51a22.58,22.58,0,0,0-.1-2.39h2.78v.5h-1.69Z"/><path class="cls-1" d="M149,43.1c.4.69.7.79,1.19.79a.89.89,0,0,0,1-.79V43a.87.87,0,0,0-.6-.8c-.2-.1-.6-.2-.79-.3a1.2,1.2,0,0,1-.9-1.19,1.51,1.51,0,0,1,1.69-1.39,2.31,2.31,0,0,1,1.19.3,1.44,1.44,0,0,0-.2.69h-.09a.89.89,0,0,0-1-.59c-.59,0-.89.3-.89.79s.39.7,1,.9a3.16,3.16,0,0,1,1,.49,1.8,1.8,0,0,1,.4.9c0,.7-.49,1.49-1.89,1.49a2.29,2.29,0,0,1-1.39-.4,2.3,2.3,0,0,0,.2-.79Z"/><path class="cls-1" d="M158.68,43.2v1h-1c0-.5.1-1.09.1-1.59V39.82H156.2v-.6h4v.5h-1.49V43.2Z"/><path class="cls-1" d="M166.93,42.5a8.44,8.44,0,0,0,.1,1.59h-1V42.2l-.4-.69c-.4-.6-1-1.59-1.39-2.19h1.19c.4.8.69,1.29,1.29,2.39A25.41,25.41,0,0,0,168,39.32h.7a8.27,8.27,0,0,1-.8,1.19L167,42c0,.1-.1.1-.1.2Z"/><path class="cls-1" d="M173.29,41.31V39.42h1c-.1,1.09-.1,2-.1,3v1.29h.1a10.72,10.72,0,0,0,1.69-.1v.5h-2.78c0-.1.1-1.79.1-1.89Z"/><path class="cls-1" d="M181.74,41.41h1.59v.4h-1.59v1.88l1.79-.1V44h-2.79V41.51a22.58,22.58,0,0,0-.1-2.39h2.79v.5h-1.69Z"/><path class="cls-1" d="M7.22,12.69c0-5.77-.2-6.76-2.68-7.06l-2-.2A1,1,0,0,1,2.55,4l.1-.1c3.38-.3,7.65-.5,13.62-.5,3.77,0,7.35.3,10.13,1.79a9.16,9.16,0,0,1,5.07,8.45c0,5.76-4.57,8.85-7.65,10-.3.4,0,1,.3,1.49C29,33,32.27,37.83,36.34,41.21a7.37,7.37,0,0,0,4.18,1.69.57.57,0,0,1,.19.69c0,.1-.1.1-.19.2a12.32,12.32,0,0,1-2.69.3c-5.17,0-8.35-1.49-12.62-7.55-1.59-2.19-4.07-6.36-6-9-.9-1.29-1.89-1.88-4.38-1.88-2.78,0-2.88.1-2.88,1.29v7.55c0,6.36.1,7.06,3.68,7.55l1.29.2a1.18,1.18,0,0,1-.1,1.49,57.33,57.33,0,0,0-7-.29c-2.49,0-4.77,0-7.66.19a1.09,1.09,0,0,1-.1-1.49l1.5-.2c3.57-.39,3.67-1.19,3.67-7.55Zm5,8.64a4.38,4.38,0,0,0,.2,2c.2.2,1.09.3,4.17.3,2.19,0,4.48-.2,6.27-1.59s3.08-3.38,3.08-7.46c0-4.77-3-9.24-9.74-9.24-3.78,0-4,.2-4,1.89Z"/><path class="cls-1" d="M86.83,11.1c0-5.07-.6-5.77-3.78-6.07l-.79-.1c-.3-.19-.2-1.09.1-1.19,2.28.1,4.87.1,7,.1h9.94c3.38,0,7.85-.3,8.25.3a37.77,37.77,0,0,1,.1,6.56c0,.4-1.39.3-1.49-.1-.4-2.39-.3-4.08-3-4.77a24.42,24.42,0,0,0-5.37-.5H94c-1.59,0-1.59.1-1.59,2V17c0,1.39.2,1.39,1.79,1.39a14,14,0,0,0,4-1.19,4.28,4.28,0,0,0,2-2.88l.4-2a1.19,1.19,0,0,1,1.39,0c0,1.19-.2,6.56-.2,8.35s.2,3.57.2,4.67a1.19,1.19,0,0,1-1.39,0l-.49-1.79a4.62,4.62,0,0,0-2.39-2.88,19.45,19.45,0,0,0-3.48-.6c-1.59,0-1.79,0-1.79,1.29v6.86c0,2.58.4,4.07,1.2,5,.59.6,1.49,1.19,6.16,1.19,4.07,0,5.56-.5,6.56-1.19,2.18-1.59,2.28-3.38,2.68-4.47a.71.71,0,0,1,.89-.5.75.75,0,0,1,.5.7c-.2,2.18-.4,7.35-.6,7.35,0,0-11-.3-15.7-.3H89.31c-2.28,0-4.07.1-7.15.2a.9.9,0,0,1-.1-1.19l1.69-.1c3-.2,3-1.89,3-6.06Z"/><path class="cls-1" d="M79.47,34.75l-1.19-.1c-2.19-.3-2-.8-2-4.37V10.2c0-2.18.1-4.77.2-6.26a.71.71,0,0,0-.59-.3c-2.69.7-5.87.8-7.36,1.2a.66.66,0,0,0,0,1h0l.6.3c2.28-.2,2.78.1,2.78,5.17V30.38c0,3.18,0,4-1.59,4.27H69.14a3.32,3.32,0,0,1-2.88-1.59,5.48,5.48,0,0,1-.2-1.79V22.13a8.09,8.09,0,0,0-1-4.57c-1.19-1.89-3.08-2.79-6.26-2.79-2.78,0-6,1.39-6.76,3.08a3.12,3.12,0,0,0,0,2.29,2.4,2.4,0,0,0,1.79.7,3,3,0,0,0,1.29-.3,1.82,1.82,0,0,0,.9-1.79c0-.1-.3-2.09,2.28-2.29,1.79-.1,2.69.4,3.28,1.49a4.59,4.59,0,0,1,.4,2.59l-.1,2.08c-1,.9-4.37,1.89-8.94,3.78-2.49,1-4,2.49-4.18,5a6.25,6.25,0,0,1-4.67,2.48c-5,0-7.45-4.37-7.45-9.44,0-1.29,0-1.39,1.49-1.39h9.44c2.29,0,3.08,0,3.18-.4s0-.49,0-1.29c0-3-3.38-6.56-8.15-6.56-6.56,0-10.43,5.17-10.43,11.43a10.52,10.52,0,0,0,2.28,6.56A9.7,9.7,0,0,0,42.4,36a10.49,10.49,0,0,0,6.76-2.48,5.56,5.56,0,0,0,1.49,1.49c1.39,1,5.07,1.19,7.75.1A20.07,20.07,0,0,0,62.08,33a3.4,3.4,0,0,0,1.29,2.29c.7.59,3,.69,5.07.69h5.77a45.38,45.38,0,0,1,5.26.2.79.79,0,0,0,.3-1.09C79.57,35,79.57,34.85,79.47,34.75ZM42.4,16.16c2.69,0,3.38,1.2,3.88,2.49a3.79,3.79,0,0,1,.1,2.58c-.2,0-1.79.1-5.86.1H37.43c-.39,0-.39-.2-.39-.2C37.14,19.44,39.12,16.16,42.4,16.16ZM61.68,31.07c0,.9-3.57,2.69-4.67,2.69a4,4,0,0,1-2.18-.6,2.9,2.9,0,0,1-1.39-2.78c0-1.69,1.09-2.79,3.47-4.08a33.43,33.43,0,0,1,5.17-2Z"/><path class="cls-1" d="M173.29,22.82h9.44c2.29,0,3.08,0,3.18-.39s0-.5,0-1.3c0-3-3.38-6.56-8.15-6.56-6.56,0-10.43,5.17-10.43,11.43a9.86,9.86,0,0,0,2.18,6.36.64.64,0,0,0-.49.6c-.3,1.19-1.89,1.59-2.49,1.59-2.88,0-3.58-3.38-3.58-6.26l.1-11h5.27a1.11,1.11,0,0,0,.1-1.59c-.1-.1-.2-.2-.3-.2h-5.07V11.1c0-1.2-1.39-.5-1.59-.2A10,10,0,0,1,156,16.07a.94.94,0,0,0,.3,1.19h2.38l-.1,13.41a5.49,5.49,0,0,0,1.19,3.88,5.32,5.32,0,0,1-1.78,0A3.35,3.35,0,0,1,155.1,33a5.48,5.48,0,0,1-.2-1.79V22a8.93,8.93,0,0,0-.89-4.57c-1.19-1.89-3.08-2.79-6.36-2.79-2.78,0-6,1.4-6.76,3.08-.2.5-.4,1.89,0,2.29a2.39,2.39,0,0,0,1.79.7,3,3,0,0,0,1.29-.3,1.82,1.82,0,0,0,.9-1.79c0-.1-.4-2.09,2.28-2.29,1.79-.1,2.69.4,3.18,1.49a4.94,4.94,0,0,1,.4,2.69l-.1,2.08c-1.09.9-4.37,1.89-8.94,3.78-2.69,1.09-4.18,2.78-4.18,5.47a2.15,2.15,0,0,0,.1.79l-.1.1a3.06,3.06,0,0,1-2.78,1.79c-2.88,0-2.78-3.18-2.78-6.06l.1-11h5.26a1.11,1.11,0,0,0,.1-1.59c-.1-.1-.2-.2-.3-.2h-5.06V11.39c0-1.19-1.39-.49-1.59-.19a9.81,9.81,0,0,1-5.57,5.16,1.1,1.1,0,0,0,.3,1.2h2.38L127.47,31c0,3,1.1,5.47,6.17,5.47a7.4,7.4,0,0,0,4.87-1.79,5.05,5.05,0,0,0,.89.7c1.39,1,5.07,1.19,7.75.1a20.41,20.41,0,0,0,3.68-2.19,3.13,3.13,0,0,0,1.39,2.28c1.19,1,7,.8,8.15.6a1.21,1.21,0,0,0,.8-.5,9.56,9.56,0,0,0,3.67.7c4.57,0,5.47-1.29,5.87-2,0-.1.1-.2.19-.4a10.55,10.55,0,0,0,6.76,2.19c2.88,0,6.56-.5,8.25-4.17.4-.8-.69-1.39-1.49-.6-2,1.89-3.28,2.48-5.07,2.48-5,0-7.45-4.37-7.45-9.44C171.8,22.92,171.9,22.82,173.29,22.82Zm4.47-6.66c2.69,0,3.38,1.2,4,2.49a3.79,3.79,0,0,1,.1,2.58c-.2,0-1.79.1-5.87.1h-3.08c-.39,0-.39-.2-.39-.2C172.59,19.44,174.58,16.16,177.76,16.16ZM150.53,31.07c0,.9-3.58,2.69-4.67,2.69a4,4,0,0,1-2.19-.6,2.77,2.77,0,0,1-1.39-2.68c0-1.69,1.1-2.79,3.48-4.08a33.43,33.43,0,0,1,5.17-2Z"/><path class="cls-1" d="M111.28,29.38l.29,6s.1.79.9.29.69-.59,1.09-.69,3.28,1.19,5.27,1.19,6.36-1.09,6.46-6-3.58-6.36-6.56-7.75-4.27-2.19-4-4.38,4.18-2.18,5.67-.69a6.58,6.58,0,0,1,1.69,2.88c.2.4,1.39,1.39,1.49.2a28.12,28.12,0,0,0-.2-3.08c0-1,.4-2.19.1-2.49s-.7-.1-1.09.2a2.57,2.57,0,0,1-1.2.5,9.11,9.11,0,0,0-4-.8,5.85,5.85,0,0,0-5.57,4.28c-.59,2.18.2,5.36,3.78,7.05s6.76,3,6.36,5.77-3.08,2.78-4.27,2.68-3.18-.7-4.77-5c0,0-.3-1.09-.8-.89S111.28,28.79,111.28,29.38Z"/></svg>