<svg id="Capa_1" data-name="Capa 1" xmlns="http://www.w3.org/2000/svg" viewBox="0 0 36 36">
  <defs>
    <style>
      .cls-1 {
        fill: #ec1c24;
      }

      .cls-2 {
        fill: #fff;
        fill-rule: evenodd;
      }
    </style>
  </defs>
  <title>email</title>
  <circle class="cls-1" cx="18" cy="18" r="17.88"/>
  <path class="cls-2" d="M25.91,18.59,22,21.54l3.89,2.94V18.59Zm-.05,7.09a.24.24,0,0,1-.06.09v0a.44.44,0,0,1-.31.13h-15a.44.44,0,0,1-.31-.13.41.41,0,0,1-.07-.11l4.95-3.74,0,0,2.63-2a.42.42,0,0,1,.52,0l2.64,2h0l4.95,3.75Zm-15.77-1.2L14,21.54l-2.68-2,0,0-1.17-.89v5.89Zm0-7.12,1,.75V14.88l-.77.77-.05,0a.48.48,0,0,0-.13.16.38.38,0,0,0,0,.19v1.32Zm1-3.88V10.65a1.56,1.56,0,0,1,.46-1.1,1.53,1.53,0,0,1,1.09-.45h7.7a.5.5,0,0,1,.38.17l4.06,4.07h0l1.58,1.58a1.29,1.29,0,0,1,.39.48,1.33,1.33,0,0,1,.15.63v9.44a1.39,1.39,0,0,1-.39,1l0,0a1.42,1.42,0,0,1-1,.41h-15A1.42,1.42,0,0,1,9.1,25.48V16a1.33,1.33,0,0,1,.15-.63,1.29,1.29,0,0,1,.39-.48l1.44-1.45Zm13.84,1.4v3.23l1-.75V16a.38.38,0,0,0,0-.19.48.48,0,0,0-.13-.16l-.07-.06-.75-.75ZM14.76,18H19a.5.5,0,0,0,0-1H14.76a.5.5,0,0,0,0,1Zm0-1.87h6.48a.49.49,0,1,0,0-1H14.76a.49.49,0,0,0,0,1Zm-2.69,2.72V10.65a.56.56,0,0,1,.16-.4.6.6,0,0,1,.4-.17h7.21V13a1.43,1.43,0,0,0,.43,1h0a1.43,1.43,0,0,0,1,.43h2.64v4.4L21.2,20.92l-2.34-1.77a1.42,1.42,0,0,0-1.72,0L14.8,20.92l-2.73-2.06Zm11.44-5.4-2.68-2.68V13a.48.48,0,0,0,.14.34h0a.47.47,0,0,0,.33.13Z"/>
</svg>
