<svg id="Capa_1" data-name="Capa 1" xmlns="http://www.w3.org/2000/svg" viewBox="0 0 36 36">
  <defs>
    <style>
      .cls-1 {
        fill: #ec1c24;
      }

      .cls-2 {
        fill: #fff;
      }
    </style>
  </defs>
  <title>in</title>
  <circle class="cls-1" cx="18" cy="18" r="17.88"/>
  <g>
    <polygon class="cls-2" points="9.75 18.17 9.75 26.25 13.6 26.25 13.6 17.52 13.6 15.25 9.75 15.25 9.75 18.17"/>
    <path class="cls-2" d="M11.68,9.75a1.93,1.93,0,1,0,1.92,1.93A1.92,1.92,0,0,0,11.68,9.75Z"/>
    <path class="cls-2" d="M26.16,18.63c-.26-2.08-1.21-3.38-4-3.38a3.47,3.47,0,0,0-3.24,1.48h0V15.25H15.8v11H19V20.8c0-1.44.27-2.83,2-2.83S23,19.61,23,20.89v5.36h3.3V20.2h0A12.78,12.78,0,0,0,26.16,18.63Z"/>
  </g>
</svg>
