<svg xmlns="http://www.w3.org/2000/svg" viewBox="0 0 53.99 37.58"><defs><style>.cls-1{fill:#231f20;}</style></defs><title>i11</title><g id="Layer_2" data-name="Layer 2"><g id="Layer_2-2" data-name="Layer 2"><path class="cls-1" d="M21.4,4.84s.22,24,0,24.67L21,34.1s-.07,1.51-2.79,1.65L14.37,36l-.07,1.57s11.76-.28,18.79-.07L33.17,36s-3.38-.1-4.78-.21c0,0-1.54-.51-1.56-2.93V9.37s.29-8.32,0-9c0,0-.3-.7-1.54-.06,0,0-2.18,1.29-12.93,4.85,0,0-.09,2.47.64,2.52"/><path class="cls-1" d="M42.22,4.84s.21,24,0,24.67l-.36,4.59s-.07,1.51-2.8,1.65L35.19,36l-.08,1.57s11.77-.28,18.8-.07L54,36s-3.39-.1-4.79-.21c0,0-1.53-.51-1.56-2.93V9.37s.3-8.32,0-9c0,0-.3-.7-1.53-.06,0,0-2.19,1.29-12.93,4.85,0,0-.09,2.47.63,2.52"/><path class="cls-1" d="M.06,36.13l0,1.29v.16s7.26-.27,12.8,0V36.13h-2.5s-1.66-.06-1.56-1.43c0,0-.16-12.38,0-15.52V14.84h-1A46.81,46.81,0,0,1,.06,16.46a4.84,4.84,0,0,0,0,1.47l3.3,0s1.18-.25,1,2.66V32s.38,4.14-1.64,4.13Z"/><ellipse class="cls-1" cx="6.25" cy="6.74" rx="2.92" ry="2.76"/></g></g></svg>