<svg xmlns="http://www.w3.org/2000/svg" viewBox="0 0 51.62 40.43"><defs><style>.cls-1{fill:#231f20;}.cls-2{fill:#d62027;}</style></defs><title>sg</title><g id="Layer_2" data-name="Layer 2"><g id="Layer_2-2" data-name="Layer 2"><path class="cls-1" d="M2.26,38.66c-.41-.3-.61-.4-.78-.4s-.34.23-.55.57-.37.41-.61.41S0,39.07,0,38.69c.13-.84.47-5.17.58-6.15,0-.21.09-.21.23-.21l.51,0c.14,0,.2.06.2.27a6.78,6.78,0,0,0,1.23,4,5.7,5.7,0,0,0,4.76,2.52c2.05,0,4.63-1.26,4.63-4.33,0-3.5-2.51-4.79-5.24-5.75a13.11,13.11,0,0,1-5-2.75,6.64,6.64,0,0,1-1.71-5A6.43,6.43,0,0,1,2.37,17a6.78,6.78,0,0,1,4.76-1.63,9.87,9.87,0,0,1,4,.85c.3.17.47.14.64,0l.44-.41a.63.63,0,0,1,.45-.2c.16,0,.26.27.26.57,0,1.19.45,4.67.48,5.41,0,.17,0,.24-.16.28l-.42.1a.14.14,0,0,1-.2-.1A8.21,8.21,0,0,0,10.53,18a4.74,4.74,0,0,0-3.71-1.47,3.86,3.86,0,0,0-4.12,4,4.16,4.16,0,0,0,1.06,3,10.88,10.88,0,0,0,3.88,2c2.34.75,4.25,1.33,5.48,2.82A6.68,6.68,0,0,1,14.61,33c0,4-2.45,7.45-6.94,7.45A8.35,8.35,0,0,1,2.26,38.66Z"/><path class="cls-2" d="M18.69,27.81a2,2,0,0,1,4,.13,1.83,1.83,0,0,1-1.9,1.88A2,2,0,0,1,18.69,27.81Z"/><path class="cls-1" d="M45.87,32.4c0-1.22-.37-1.57-1.39-1.57H43.05c-.18,0-.24-.06-.24-.2v-.85c0-.2,0-.27.2-.27.48,0,2,.1,4.32.1s3.54-.1,4-.1c.24,0,.27.1.27.24v.81c0,.14,0,.27-.24.27H50.05c-.61,0-1,.24-1,1.3v4.49c0,.48.14.82.14,1.09s-.21.41-.55.55a19.29,19.29,0,0,1-9.29,2.17c-3,0-7.18-1.12-9.53-3.88-2.07-2.34-3.13-5.24-3.13-9.35a11.78,11.78,0,0,1,3.85-8.65,14,14,0,0,1,9.56-3.23,12,12,0,0,1,6.7,2c.38.31.58.24.78,0l.52-.61c.13-.14.27-.31.48-.31s.3.17.3.41l.1,6.5c0,.17,0,.31-.17.31l-.61.06c-.14,0-.24-.1-.27-.27a11.33,11.33,0,0,0-2.05-4,8,8,0,0,0-6.19-2.79,8.2,8.2,0,0,0-6.49,2.76,11.45,11.45,0,0,0-3,7.83c0,4,1.12,7.52,3.23,9.53a8.48,8.48,0,0,0,6,2.41A10.92,10.92,0,0,0,45,37.91c.78-.47.92-1.22.92-3Z"/><path class="cls-1" d="M8.53,6.9c0-.49-.15-.63-.56-.63H7.39c-.07,0-.11,0-.11-.08V5.84c0-.08,0-.11.09-.11s.81,0,1.75,0,1.43,0,1.62,0,.11,0,.11.1v.33s0,.11-.1.11h-.54c-.24,0-.41.09-.41.52V8.61c0,.19,0,.32,0,.43s-.08.17-.22.23a7.82,7.82,0,0,1-3.76.88A5.29,5.29,0,0,1,2,8.58,5.35,5.35,0,0,1,.76,4.8,4.76,4.76,0,0,1,2.31,1.31,5.64,5.64,0,0,1,6.18,0a4.91,4.91,0,0,1,2.7.8c.15.12.24.1.32,0L9.4.54c.06-.06.12-.13.2-.13s.13.07.13.16l0,2.63c0,.07,0,.13-.07.13l-.25,0c-.06,0-.1,0-.11-.11a4.67,4.67,0,0,0-.83-1.62A3.2,3.2,0,0,0,6,.49,3.33,3.33,0,0,0,3.38,1.61a4.66,4.66,0,0,0-1.2,3.16,5.37,5.37,0,0,0,1.3,3.85,3.42,3.42,0,0,0,2.42,1,4.41,4.41,0,0,0,2.25-.47c.32-.2.38-.5.38-1.21Z"/><path class="cls-1" d="M13.24,3.68c0-1,0-1.89,0-2.29S13.05.7,12.71.7h-.55c-.07,0-.08,0-.08-.1V.26c0-.07,0-.1.08-.1s.55,0,1.7,0c.78,0,2.06,0,2.3,0A3.73,3.73,0,0,1,18.73,1a2.29,2.29,0,0,1,.71,1.56c0,1.72-.78,2.36-2.54,2.75v0a1.37,1.37,0,0,1,.63.52c.17.18,1.14,1.58,1.25,1.76A11.85,11.85,0,0,0,20,9.21a1.54,1.54,0,0,0,1,.24c.09,0,.1.05.1.11v.3c0,.08,0,.12-.1.12s-.47,0-1.08,0c-.4,0-.9,0-1.11,0a7,7,0,0,1-.58-.79c-.11-.15-.86-1.46-.92-1.57s-.72-1.09-.88-1.28a1.72,1.72,0,0,0-1.49-.8,2,2,0,0,0-.45,0v.77c0,.82,0,2.35,0,2.56s.13.54.34.54h.87c.09,0,.1,0,.1.11v.3c0,.09,0,.12-.14.12s-.49,0-1.8,0-1.57,0-1.72,0-.12,0-.12-.11V9.56c0-.07,0-.11.07-.11h.57c.3,0,.54-.1.54-.47,0-1.36,0-2.66,0-4Zm1.24,1.37a2.88,2.88,0,0,0,.62,0c2.5,0,3-1.72,3-2.3a2.09,2.09,0,0,0-.68-1.56A3.3,3.3,0,0,0,15.11.6a.93.93,0,0,0-.47.11.56.56,0,0,0-.16.45Z"/><path class="cls-1" d="M24.07,9.86A2.54,2.54,0,0,1,22.42,8a15,15,0,0,1-.21-3.35V1.41c0-.49-.1-.71-.52-.71H21C21,.7,21,.67,21,.57V.28c0-.09,0-.12.12-.12s.81,0,1.88,0,1.74,0,1.89,0,.12,0,.12.09V.6c0,.07,0,.1-.11.1h-.69a.62.62,0,0,0-.66.57c0,.12,0,1.08,0,1.78V4c0,.72.05,2.48.06,2.91A3.21,3.21,0,0,0,24,8.62a2.57,2.57,0,0,0,2.19,1,2.91,2.91,0,0,0,2.06-.76A3.39,3.39,0,0,0,29,6.44V3.49c0-1.05,0-1.84-.07-2.18A.61.61,0,0,0,28.26.7h-.61c-.08,0-.09,0-.09-.11V.26c0-.07,0-.1.09-.1s.77,0,1.69,0,1.4,0,1.52,0,.13.06.13.1v.3c0,.09,0,.14-.08.14h-.56c-.51,0-.55.38-.59.55s0,2.09,0,2.28,0,2.6-.07,3.14A3.53,3.53,0,0,1,28.5,9.32a3.65,3.65,0,0,1-2.58.83A5.13,5.13,0,0,1,24.07,9.86Z"/><path class="cls-1" d="M34.17,6.3c0,.64,0,2.51,0,2.71s.17.44.45.44h.89c.09,0,.11,0,.11.09v.33c0,.07,0,.11-.13.11s-.62,0-1.91,0-1.75,0-1.9,0-.11,0-.11-.1V9.54c0-.07,0-.09.08-.09h.6c.47,0,.56-.07.6-.44,0-.14.06-2.29.06-3.88V3.55c0-.91,0-2.41,0-2.54,0-.28-.16-.31-.54-.31h-.78c-.07,0-.08,0-.08-.11V.26c0-.07,0-.1.08-.1s.65,0,1.95,0c.25,0,1.06,0,1.51,0a4.82,4.82,0,0,1,3.07.69,2.43,2.43,0,0,1,1,2c0,1.74-1.3,2.81-3.49,2.81a12,12,0,0,1-1.5-.07Zm0-1.21a5.12,5.12,0,0,0,1.27.12,2.45,2.45,0,0,0,1.93-.94,2.16,2.16,0,0,0,.36-1.38A2.35,2.35,0,0,0,35.25.6a4.1,4.1,0,0,0-1.08.1Z"/><path class="cls-1" d="M42.1,9.25a4.81,4.81,0,0,1-2-4.08,5.33,5.33,0,0,1,1.28-3.42A4.51,4.51,0,0,1,45.08,0a4.64,4.64,0,0,1,3.07,1.08A5.3,5.3,0,0,1,50,5.2a4.93,4.93,0,0,1-1,3,4.65,4.65,0,0,1-4,2A6,6,0,0,1,42.1,9.25Zm6.6-3.94c0-3-2.15-4.79-3.67-4.79a2.67,2.67,0,0,0-2.18.81,4.91,4.91,0,0,0-1.37,3.4c0,3.62,2.52,4.89,3.68,4.89C48.19,9.62,48.7,6.53,48.7,5.31Z"/></g></g></svg>